<svg version="1.2" xmlns="http://www.w3.org/2000/svg" viewBox="0 0 67 86" width="67" height="86">
	<title>certico-1-svg</title>
	<defs>
		<clipPath clipPathUnits="userSpaceOnUse" id="cp1">
			<path d="m0 0h66.5v85.82h-66.5z"/>
		</clipPath>
	</defs>
	<style>
		.s0 { fill: #0b9f39 } 
	</style>
	<g id="Clip-Path: Grupo_129818" clip-path="url(#cp1)">
		<filter id="f0">
			<feFlood flood-color="#ffffff" flood-opacity="1" />
			<feBlend mode="normal" in2="SourceGraphic"/>
			<feComposite in2="SourceAlpha" operator="in" />
		</filter>
		<g id="Grupo_129818" filter="url(#f0)">
			<path id="Trazado_156491" fill-rule="evenodd" class="s0" d="m66.5 24.2v53.9q0 0.1 0 0.1-0.1 0.1-0.1 0.1 0 0.1 0 0.2 0 0 0 0.1-0.1 0.8-0.4 1.6-0.2 0.8-0.7 1.5-0.4 0.7-1 1.3-0.5 0.6-1.2 1.1-0.4 0.2-0.9 0.5-0.4 0.2-0.9 0.4-0.4 0.2-0.9 0.4-0.5 0.2-0.9 0.4h-52.4q-0.1 0-0.1 0 0 0-0.1-0.1 0 0 0 0-0.1 0-0.1 0-1.5-0.3-2.8-1.1-1.2-0.8-2.2-2-0.9-1.2-1.4-2.6-0.4-1.5-0.4-3c0.1-22.8 0-45.7 0-68.6q0-0.6 0.1-1.2 0-0.6 0.2-1.2 0.2-0.6 0.4-1.1 0.3-0.6 0.6-1.1 0.5-0.9 1.2-1.6 0.7-0.7 1.5-1.2 0.9-0.5 1.9-0.7 0.9-0.3 1.9-0.3 17.2 0 34.4 0h1v1q0.1 6.6 0 13.1 0 0.7 0.1 1.4 0.1 0.7 0.2 1.4 0.2 0.7 0.4 1.3 0.3 0.6 0.6 1.2 0.7 1.2 1.6 2.1 0.9 0.9 2.1 1.5 1.1 0.6 2.3 0.9 1.3 0.3 2.6 0.3c4.4 0 8.9 0 13.4 0zm-48 20.3q-0.2 0.2-0.3 0.5-0.1 0.2-0.1 0.5 0 0.3 0.1 0.6 0 0.1 0.1 0.3 0.1 0.2 0.2 0.3 0.1 0.2 0.2 0.3 0.1 0.2 0.3 0.3 6.2 6.8 12.5 13.5c1.2 1.3 2.2 1.3 3.4-0.1q6.3-6.7 12.6-13.4 0-0.1 0.1-0.2 0.1-0.1 0.2-0.2 0.1-0.1 0.1-0.2 0.1-0.1 0.2-0.2 0.2-0.4 0.2-0.9 0-0.4-0.2-0.8-0.3-0.4-0.6-0.7-0.4-0.2-0.9-0.2-0.3 0-0.5 0.1-0.3 0-0.5 0.2-0.2 0.1-0.4 0.2-0.2 0.2-0.4 0.4-4.6 5-9.2 10c-0.2 0.1-0.3 0.3-0.6 0.5 0-8 0-17.1 0-25.1q0-0.1 0-0.3 0-0.1 0-0.2 0-0.2 0-0.3 0-0.1 0-0.3-0.1-0.3-0.2-0.6-0.1-0.2-0.4-0.4-0.2-0.3-0.5-0.4-0.2-0.1-0.5-0.1-0.3-0.1-0.6 0-0.3 0.1-0.5 0.3-0.3 0.1-0.5 0.4-0.1 0.2-0.2 0.5-0.1 0.1-0.1 0.3 0 0.1 0 0.3-0.1 0.2-0.1 0.3 0 0.2 0 0.3 0 12.1 0 24.2v1.1c-0.4-0.4-0.6-0.6-0.8-0.8q-3.9-4.2-7.7-8.3c-0.6-0.7-1.2-1.3-1.9-1.9q-0.2-0.2-0.4-0.3-0.3-0.1-0.6-0.2-0.3 0-0.5 0.1-0.3 0.1-0.5 0.3-0.3 0.1-0.5 0.3zm34.5 28.9q0.3-0.3 0.5-0.6 0.2-0.4 0.2-0.8 0-0.4-0.2-0.8-0.1-0.3-0.3-0.5-0.2-0.2-0.5-0.3-0.3-0.2-0.6-0.2-0.3-0.1-0.6 0-9.1 0-18.3 0-9 0-17.9 0-0.2 0-0.3 0-0.1 0-0.2 0-0.2 0-0.3 0-0.1 0-0.2 0-0.3 0-0.6 0.2-0.2 0.1-0.4 0.3-0.2 0.2-0.4 0.4-0.1 0.3-0.1 0.6-0.1 0.3 0 0.6 0 0.3 0.2 0.6 0.1 0.2 0.4 0.4 0.2 0.2 0.5 0.3 0.2 0 0.3 0.1 0.2 0 0.3 0 0.2 0 0.3 0 0.2 0 0.4 0 18 0 36.1 0 0.1 0 0.2 0 0.2 0 0.3 0 0.1 0 0.2 0 0.1 0 0.2 0 0.4-0.1 0.8-0.3z"/>
			<path id="Trazado_156492" class="s0" d="m52.3 20.5c3.8 0.1 7.5 0 11.2 0 0.1 0 0.2 0 0.3-0.1l-16.9-17.8c0 4.4-0.1 8.5 0 12.7q0.1 1 0.5 1.9 0.5 1 1.2 1.7 0.7 0.7 1.7 1.1 1 0.4 2 0.5z"/>
		</g>
	</g>
</svg>