<svg id="Grupo_129819" data-name="Grupo 129819" xmlns="http://www.w3.org/2000/svg" xmlns:xlink="http://www.w3.org/1999/xlink" width="66.5" height="85.822" viewBox="0 0 66.5 85.822">
  <defs>
    <clipPath id="clip-path">
      <rect id="Rectángulo_38866" data-name="Rectángulo 38866" width="66.5" height="85.822" fill="#0b9f39"/>
    </clipPath>
  </defs>
  <g id="Grupo_129818" data-name="Grupo 129818" clip-path="url(#clip-path)">
    <path id="Trazado_156491" data-name="Trazado 156491" d="M53.076,24.172a9.462,9.462,0,0,1-8.526-4.728,9.837,9.837,0,0,1-1.3-5.3c.015-4.366,0-8.731,0-13.1V.006H42.152Q24.993.006,7.833,0A7.526,7.526,0,0,0,1.275,3.815,8.166,8.166,0,0,0,.024,8.432C.041,31.3.072,54.16,0,77.024a8.635,8.635,0,0,0,6.784,8.659,1.375,1.375,0,0,1,.3.139H59.451A25.425,25.425,0,0,0,63.1,84.089a7.672,7.672,0,0,0,3.256-5.519A3.034,3.034,0,0,1,66.5,78.1V24.189c-4.475,0-8.95.016-13.425-.016M18.956,44.166a1.608,1.608,0,0,1,2.086.135c.646.574,1.224,1.225,1.815,1.859q3.86,4.144,7.711,8.3c.225.242.457.479.849.89V54.194q0-12.086.006-24.172a4.533,4.533,0,0,1,.149-1.237,1.746,1.746,0,0,1,1.788-1.227,1.769,1.769,0,0,1,1.6,1.565A9.7,9.7,0,0,1,35,30.212q0,12,0,24v1.073c.273-.234.44-.35.575-.5q4.633-4.972,9.257-9.952a2.283,2.283,0,0,1,1.775-.953,1.763,1.763,0,0,1,1.458,2.623,4.041,4.041,0,0,1-.606.8q-6.259,6.726-12.528,13.443c-1.239,1.327-2.227,1.336-3.454.022q-6.268-6.717-12.514-13.455a3.174,3.174,0,0,1-.773-1.259,1.658,1.658,0,0,1,.758-1.893M52.228,73.691a4.646,4.646,0,0,1-.918.047q-18.079,0-36.158,0a4.153,4.153,0,0,1-1.236-.149,1.663,1.663,0,0,1-1.136-1.91A1.694,1.694,0,0,1,14.27,70.2a8.2,8.2,0,0,1,1.005-.033q8.976,0,17.953,0,9.144,0,18.289-.008a1.954,1.954,0,0,1,2.026,1.033,1.762,1.762,0,0,1-1.315,2.5" transform="translate(-0.001 0)" fill="#0b9f39"/>
    <path id="Trazado_156492" data-name="Trazado 156492" d="M283.906,33.462c3.744.094,7.492.047,11.238.056.066,0,.133-.062.27-.129L278.486,15.613c0,4.36-.094,8.5.033,12.631a5.548,5.548,0,0,0,5.388,5.218" transform="translate(-231.597 -12.986)" fill="#0b9f39"/>
  </g>
</svg>
