<svg version="1.2" xmlns="http://www.w3.org/2000/svg" viewBox="0 0 94 94" width="94" height="94">
	<title>cuenta-1-svg</title>
	<defs>
		<clipPath clipPathUnits="userSpaceOnUse" id="cp1">
			<path d="m0 0h93.16v93.11h-93.16z"/>
		</clipPath>
	</defs>
	<style>
		.s0 { fill: #049d39 } 
	</style>
	<g id="Clip-Path: Grupo_129757" clip-path="url(#cp1)">
		<filter id="f0">
			<feFlood flood-color="#ffffff" flood-opacity="1" />
			<feBlend mode="normal" in2="SourceGraphic"/>
			<feComposite in2="SourceAlpha" operator="in" />
		</filter>
		<g id="Grupo_129757" filter="url(#f0)">
			<path id="Trazado_156087" fill-rule="evenodd" class="s0" d="m49.8 93.1h-6.5q-0.5-0.1-0.9-0.2c-1.9-0.3-3.8-0.4-5.6-0.8q-3.2-0.7-6.2-1.8-3.1-1.1-5.9-2.6-2.9-1.5-5.5-3.4-2.6-1.9-4.9-4.2-2.8-2.6-5-5.6-2.3-3.1-4.1-6.4-1.8-3.4-2.9-7-1.2-3.7-1.8-7.4-0.2-1.9-0.5-3.7v-6.9q0-0.1 0-0.1 0.1-0.1 0.1-0.2 0-0.1 0-0.1 0.1-0.1 0.1-0.2c0.3-2.3 0.6-4.6 1.1-6.9 2.8-11.7 10.1-21.8 20.3-28.3 10.2-6.5 22.4-8.7 34.3-6.3 11.8 2.4 22.2 9.3 29 19.2 6.9 9.9 9.6 22.1 7.6 34q-0.6 3.8-1.9 7.5-1.2 3.6-3 7-1.9 3.4-4.3 6.4-2.3 3.1-5.2 5.7-2.4 2.2-5.1 4.1-2.7 1.9-5.7 3.4-3 1.5-6.1 2.5-3.2 1-6.5 1.6c-1.6 0.3-3.2 0.5-4.9 0.7zm-3.6-14.7q1 0 2 0c1.4 0 2-0.6 2-1.9q0.1-2 0-4 0-0.4 0.1-0.9 0.1-0.4 0.3-0.8 0.3-0.4 0.7-0.6 0.4-0.3 0.8-0.3 0.4-0.2 0.8-0.3 0.4-0.1 0.8-0.3 0.4-0.1 0.8-0.3 0.4-0.2 0.8-0.4c1.3-0.6 2.6-1.5 3.7-2.6 1.1-1.1 2-2.3 2.6-3.7 0.7-1.4 1.1-2.9 1.3-4.4 0.2-1.5 0.1-3.1-0.2-4.6q-0.3-1.6-1-3.1-0.7-1.5-1.7-2.8-1.1-1.3-2.4-2.3-1.3-1-2.8-1.7c-2.3-1.2-4.7-2.1-7-3.2q-0.6-0.3-1.2-0.6-0.6-0.3-1.2-0.6-0.5-0.4-1.1-0.7-0.5-0.4-1.1-0.8c-0.5-0.3-0.9-0.8-1.2-1.4-0.2-0.6-0.3-1.3-0.2-1.9 0-0.6 0.3-1.2 0.7-1.7 0.4-0.5 0.9-0.9 1.5-1.2q0.3-0.1 0.7-0.2 0.4-0.2 0.8-0.3 0.3-0.1 0.7-0.1 0.4-0.1 0.8-0.1 1.3-0.1 2.6 0 1.3 0.1 2.6 0.3 1.2 0.3 2.5 0.7 1.2 0.4 2.3 1c1.4 0.6 1.8 0.4 2.3-0.9 0.5-1.5 0.9-3 1.3-4.5 0.7-2.4 0.6-2.9-1.8-3.7-2.1-0.7-4.3-1.2-6.4-1.7-1.3-0.3-1.6-0.6-1.7-1.9 0-1.1 0-2.2-0.1-3.3-0.1-1.4-0.5-1.8-1.9-1.8-1.3-0.1-2.6-0.1-3.8-0.1-1.7 0.1-2.1 0.5-2.2 2.1q0 1.7 0 3.3c0 1.6-0.2 1.9-1.7 2.5-0.9 0.3-1.8 0.7-2.7 1.1-1.5 0.7-2.9 1.6-4 2.8-1.2 1.2-2.1 2.6-2.8 4.1-0.6 1.5-1 3.2-1 4.9-0.1 1.6 0.2 3.3 0.8 4.8q0.4 1.2 1.1 2.3 0.7 1 1.5 1.9 0.9 0.9 1.9 1.7 1 0.7 2.2 1.2c2.7 1.5 5.7 2.6 8.5 3.9q0.5 0.3 1 0.5 0.5 0.3 1 0.6 0.5 0.3 0.9 0.6 0.5 0.3 0.9 0.7c0.5 0.4 1 1.1 1.2 1.7 0.3 0.7 0.4 1.5 0.3 2.2-0.1 0.7-0.4 1.4-0.9 2-0.4 0.6-1 1-1.7 1.3q-0.7 0.4-1.4 0.6-0.7 0.3-1.5 0.4-0.7 0.1-1.5 0.1-0.8 0-1.6-0.1-1.2-0.1-2.4-0.3-1.1-0.3-2.3-0.6-1.2-0.4-2.3-0.8-1.1-0.5-2.2-1.1c-1.2-0.6-1.8-0.4-2.2 1q-0.8 2.7-1.6 5.4c-0.3 1.4-0.1 2 1.3 2.7q0.3 0.2 0.6 0.3 0.3 0.2 0.6 0.3 0.3 0.1 0.7 0.3 0.3 0.1 0.6 0.2c2.3 0.6 4.5 1.1 6.8 1.6q0.3 0 0.5 0.1 0.2 0.2 0.4 0.4 0.2 0.2 0.3 0.4 0 0.3 0 0.5 0.1 2.2 0.2 4.4-0.1 0.3 0.1 0.6 0.1 0.4 0.3 0.6 0.3 0.3 0.6 0.4 0.3 0.1 0.7 0.1c0.7 0 1.5 0 2.3 0z"/>
		</g>
	</g>
</svg>