<svg id="Grupo_129758" data-name="Grupo 129758" xmlns="http://www.w3.org/2000/svg" xmlns:xlink="http://www.w3.org/1999/xlink" width="93.159" height="93.108" viewBox="0 0 93.159 93.108">
  <defs>
    <clipPath id="clip-path">
      <rect id="Rectángulo_38829" data-name="Rectángulo 38829" width="93.159" height="93.108" fill="#049d39"/>
    </clipPath>
  </defs>
  <g id="Grupo_129757" data-name="Grupo 129757" clip-path="url(#clip-path)">
    <path id="Trazado_156087" data-name="Trazado 156087" d="M49.822,93.108H43.276c-.293-.06-.585-.135-.88-.179-1.881-.283-3.785-.459-5.641-.856A45.375,45.375,0,0,1,14.312,80.134,45.707,45.707,0,0,1,.536,53.675C.346,52.459.178,51.239,0,50.021V43.113a5.018,5.018,0,0,0,.171-.595c.372-2.294.6-4.62,1.125-6.878A46.57,46.57,0,0,1,92.5,54.222,45.976,45.976,0,0,1,78.12,80.765,45.411,45.411,0,0,1,54.744,92.39c-1.632.289-3.281.481-4.922.718M46.155,78.386c.7,0,1.394.013,2.091,0,1.352-.03,1.939-.6,1.968-1.933q.042-1.953.027-3.907a2.337,2.337,0,0,1,1.906-2.686,24.177,24.177,0,0,0,3.116-1.217,13.806,13.806,0,0,0,7.453-15.308,14.08,14.08,0,0,0-7.881-9.97c-2.291-1.154-4.711-2.048-7.018-3.172a25,25,0,0,1-4.6-2.666,3.561,3.561,0,0,1,.748-6.186,8.56,8.56,0,0,1,3.048-.739,19.575,19.575,0,0,1,10.022,2c1.323.63,1.786.431,2.248-.947.489-1.458.894-2.945,1.323-4.423.709-2.443.548-2.937-1.821-3.725-2.082-.693-4.241-1.164-6.381-1.67-1.31-.309-1.626-.61-1.671-1.937-.037-1.089-.057-2.18-.135-3.267-.1-1.414-.484-1.8-1.915-1.864-1.27-.055-2.545-.034-3.817-.023-1.683.014-2.107.432-2.133,2.09-.017,1.09-.006,2.181-.015,3.272-.014,1.637-.2,1.9-1.707,2.488-.9.354-1.807.693-2.682,1.1a13.216,13.216,0,0,0-7.064,16.635,13.288,13.288,0,0,0,6.7,7.115c2.778,1.45,5.743,2.535,8.573,3.891a15.605,15.605,0,0,1,3.743,2.336,4.32,4.32,0,0,1-1.043,7.256,10.129,10.129,0,0,1-5.993,1A26.789,26.789,0,0,1,34,59.15c-1.248-.642-1.757-.426-2.177.9-.575,1.812-1.112,3.638-1.594,5.476-.366,1.4-.081,1.985,1.224,2.658a13.256,13.256,0,0,0,2.577,1.1c2.241.6,4.507,1.115,6.773,1.619a1.325,1.325,0,0,1,1.226,1.413c.021,1.453.057,2.907.125,4.359a1.628,1.628,0,0,0,1.725,1.708c.756.032,1.515.006,2.272.006" transform="translate(0 0)" fill="#049d39"/>
  </g>
</svg>
