<svg id="Grupo_129761" data-name="Grupo 129761" xmlns="http://www.w3.org/2000/svg" xmlns:xlink="http://www.w3.org/1999/xlink" width="158.105" height="69.619" viewBox="0 0 158.105 69.619">
  <defs>
    <clipPath id="clip-path">
      <rect id="Rectángulo_38828" data-name="Rectángulo 38828" width="158.105" height="69.619" fill="#049d39"/>
    </clipPath>
  </defs>
  <g id="Grupo_129754" data-name="Grupo 129754" clip-path="url(#clip-path)">
    <path id="Trazado_156083" data-name="Trazado 156083" d="M360.064,79.38a21.552,21.552,0,0,0,1.789,1.626,8.235,8.235,0,0,0,7.381,1.2,12.152,12.152,0,0,0,4.741-2.642,9.769,9.769,0,0,0,2.362-3.469c1.587-3.464,1.373-7.112,1.231-10.764a6,6,0,0,0-1.335-3.86,6.691,6.691,0,0,0-4.835-2.253,13.065,13.065,0,0,0-8.674,2.234,9.257,9.257,0,0,0-3.876,5.889,26.525,26.525,0,0,0-.484,6.348,12.606,12.606,0,0,1-2.529,7.987,21.733,21.733,0,0,1-10.948,7.619c-4.6,1.6-9.357,1.834-14.161,1.738-.827-.016-1.655-.023-2.482,0a1.743,1.743,0,0,0-1.939,2c.015,2.894-.024,5.789.081,8.68a4.078,4.078,0,0,1-2.189,3.926,7.726,7.726,0,0,1-7.843.186A4.308,4.308,0,0,1,314,101.739q-.016-22.489,0-44.978a9.162,9.162,0,0,1,.1-1.494c.314-1.887,1.67-2.8,3.326-3.3a7.813,7.813,0,0,1,6.016.421,4.911,4.911,0,0,1,2.421,2.932c.5,1.417.607,1.442,1.7.437a20.4,20.4,0,0,1,5.087-3.607,19.655,19.655,0,0,1,9.712-1.774,18.719,18.719,0,0,1,8.656,2.822,14.791,14.791,0,0,0,2.039,1.256,2.429,2.429,0,0,0,1.619-.022c1.927-.735,3.768-1.727,5.732-2.323a42.665,42.665,0,0,1,6.552-1.381,31,31,0,0,1,5.591-.242c4.293.191,8.412,1.087,11.962,3.706a12.924,12.924,0,0,1,4.967,6.756A7.653,7.653,0,0,1,389.79,63c.09,6.133.181,12.267.205,18.4.01,2.585-.117,5.171-.216,7.755a15.6,15.6,0,0,1-5.446,11.5,21.78,21.78,0,0,1-7.684,4.285,35.175,35.175,0,0,1-10.737,1.526c-3.286.044-6.57.183-9.856.219a5.867,5.867,0,0,1-3.86-1.353c-1.6-1.3-1.543-4.769.646-5.788a8.7,8.7,0,0,1,3.606-.744c2.59-.044,5.185.019,7.772-.091a20.437,20.437,0,0,0,7.093-1.253,9.783,9.783,0,0,0,5.948-6.169,7.853,7.853,0,0,0,.135-4.255c-.12-.515-.43-.489-.784-.317-.566.274-1.121.574-1.676.871a33.123,33.123,0,0,1-8.8,3.35,17.1,17.1,0,0,1-12.623-2.095c-.308-.17-.58-.318-.259-.734q3.326-4.307,6.636-8.625c.024-.031.072-.044.178-.107m-33.531-3.956c0,.761-.04,1.525.009,2.284a4.025,4.025,0,0,0,1.434,2.957,7.1,7.1,0,0,0,4.476,1.683,13.757,13.757,0,0,0,7.748-1.525,10.216,10.216,0,0,0,5.055-7.521c.166-1,.307-2.012.393-3.025a7.606,7.606,0,0,0-.019-2.125A37.174,37.174,0,0,0,344.6,64.32a7.921,7.921,0,0,0-1.855-3.258,6.639,6.639,0,0,0-5.812-1.866,12.783,12.783,0,0,0-6.071,2.678,8.561,8.561,0,0,0-3.435,5.139,41.057,41.057,0,0,0-.9,8.412" transform="translate(-231.892 -37.174)" fill="#049d39"/>
    <path id="Trazado_156084" data-name="Trazado 156084" d="M59.007,60.767c-1.565.249-3.091.369-4.548.749-3.864,1.008-6.929,3.1-8.543,6.9a14.945,14.945,0,0,0-.923,5.5c-.11,3.914-.182,7.828-.245,11.743-.029,1.83-.387,3.545-1.908,4.716a5.791,5.791,0,0,1-2.333,1.083c-2.493.486-4.919.343-6.943-1.465A3.866,3.866,0,0,1,32.2,87.2c-.108-4.7-.158-9.393-.2-14.09-.014-1.435.125-2.873.066-4.305a19.587,19.587,0,0,0-.462-3.729,4.888,4.888,0,0,0-2.59-2.97,8.682,8.682,0,0,0-4.875-1.192,11.757,11.757,0,0,0-4.479,1.255,13.567,13.567,0,0,0-4.5,3.391,10.425,10.425,0,0,0-2.444,6.86c-.044,4.524-.025,9.05-.03,13.574,0,3.493-2.118,5.345-5.332,5.646a8.011,8.011,0,0,1-4.638-.753A4.692,4.692,0,0,1,.027,86.47c0-9.031.016-18.061-.026-27.092a6.806,6.806,0,0,1,.7-3.324,4.918,4.918,0,0,1,3.606-2.547A7.2,7.2,0,0,1,10.4,54.593a6.438,6.438,0,0,1,1.99,3c.477,1.266.569,1.282,1.628.463a33.034,33.034,0,0,1,8.554-4.937,16.373,16.373,0,0,1,11.441-.33A21.162,21.162,0,0,1,40.586,56.7c1.013.852,1.981,1.759,2.94,2.673a.732.732,0,0,0,1.213-.027c.651-.668,1.335-1.3,2.014-1.945a5.4,5.4,0,0,1,5.838-1.251,11.9,11.9,0,0,1,6.068,4.069c.128.171.232.361.348.543" transform="translate(0 -38.337)" fill="#049d39"/>
    <path id="Trazado_156085" data-name="Trazado 156085" d="M201.875,54.256c.854-.266,1.695-.593,2.565-.788a26.4,26.4,0,0,1,7.058-.7,18.111,18.111,0,0,1,10.032,3.226,10.58,10.58,0,0,1,4.7,8.333c.1,2.277.118,4.559.137,6.839q.063,7.637.078,15.273a6.366,6.366,0,0,1-.691,3.142,5.046,5.046,0,0,1-3.63,2.517,8.047,8.047,0,0,1-6.169-.935,4.659,4.659,0,0,1-2.241-4.1q-.015-8.453-.007-16.906a15.361,15.361,0,0,0-2.29-8.315,15.673,15.673,0,0,0-5.731-5.4c-1.229-.689-2.494-1.315-3.743-1.97l-.066-.222" transform="translate(-149.089 -38.952)" fill="#049d39"/>
    <path id="Trazado_156086" data-name="Trazado 156086" d="M233.063,4.972A4.5,4.5,0,0,1,236.719.5a13.749,13.749,0,0,1,7.475.045,4.5,4.5,0,0,1,3.334,5.4,3.642,3.642,0,0,1-1.562,2,10.787,10.787,0,0,1-3.457,1.289,10.014,10.014,0,0,1-7.316-.948,3.59,3.59,0,0,1-2.131-3.313" transform="translate(-172.122 0)" fill="#049d39"/>
  </g>
</svg>
