<svg version="1.2" xmlns="http://www.w3.org/2000/svg" viewBox="0 0 159 70" width="159" height="70">
	<title>mipg-1-svg</title>
	<defs>
		<clipPath clipPathUnits="userSpaceOnUse" id="cp1">
			<path d="m0 0h158.1v69.62h-158.1z"/>
		</clipPath>
	</defs>
	<style>
		.s0 { fill: #049d39 } 
	</style>
	<g id="Clip-Path: Grupo_129754" clip-path="url(#cp1)">
		<filter id="f0">
			<feFlood flood-color="#ffffff" flood-opacity="1" />
			<feBlend mode="normal" in2="SourceGraphic"/>
			<feComposite in2="SourceAlpha" operator="in" />
		</filter>
		<g id="Grupo_129754" filter="url(#f0)">
			<path id="Trazado_156083" fill-rule="evenodd" class="s0" d="m128.2 42.2q0.2 0.2 0.4 0.4 0.2 0.2 0.4 0.4 0.3 0.2 0.5 0.4 0.2 0.2 0.5 0.4 0.7 0.6 1.6 1 0.9 0.4 1.9 0.5 1 0.2 1.9 0.1 1-0.1 1.9-0.4 0.7-0.2 1.3-0.4 0.7-0.3 1.3-0.6 0.6-0.4 1.1-0.8 0.6-0.4 1.1-0.8 0.4-0.4 0.7-0.8 0.4-0.4 0.7-0.8 0.3-0.5 0.5-0.9 0.2-0.5 0.4-1c1.6-3.4 1.4-7.1 1.3-10.7q0-0.6-0.1-1.1-0.1-0.5-0.3-1-0.1-0.5-0.4-0.9-0.2-0.5-0.6-0.9-0.4-0.5-1-0.9-0.5-0.4-1.1-0.7-0.7-0.3-1.3-0.5-0.7-0.1-1.4-0.2-1.1-0.1-2.3 0-1.1 0.1-2.2 0.4-1.1 0.3-2.2 0.8-1 0.4-2 1.1-0.7 0.5-1.4 1.1-0.6 0.7-1.1 1.4-0.5 0.8-0.8 1.6-0.4 0.9-0.5 1.8-0.2 0.7-0.3 1.5-0.1 0.8-0.2 1.6 0 0.8-0.1 1.6 0 0.8 0.1 1.6 0 1.1-0.1 2.1-0.2 1.1-0.5 2.1-0.3 1-0.8 2-0.5 0.9-1.2 1.8-1 1.4-2.2 2.5-1.2 1.2-2.6 2.2-1.4 0.9-3 1.7-1.5 0.7-3.1 1.2c-4.6 1.6-9.4 1.9-14.2 1.8q-1.2-0.1-2.4 0-0.5-0.1-0.8 0-0.4 0.2-0.7 0.5-0.3 0.3-0.4 0.7-0.1 0.4-0.1 0.8c0 2.9 0 5.7 0.1 8.6q0 0.6-0.1 1.2-0.1 0.6-0.4 1.1-0.3 0.6-0.7 1-0.5 0.4-1 0.7-0.9 0.5-1.9 0.8-1 0.3-2 0.3-1 0.1-2-0.2-1-0.2-1.9-0.7-0.6-0.3-1.1-0.8-0.4-0.4-0.7-0.9-0.3-0.6-0.5-1.2-0.1-0.6-0.1-1.2 0-22.5 0-45 0-0.2 0-0.4 0-0.2 0-0.4 0-0.1 0.1-0.3 0-0.2 0-0.4c0.3-1.9 1.7-2.8 3.3-3.3q0.8-0.3 1.5-0.4 0.8-0.1 1.6 0 0.8 0.1 1.5 0.3 0.8 0.2 1.5 0.5 0.4 0.2 0.8 0.6 0.3 0.3 0.7 0.6 0.3 0.4 0.5 0.8 0.2 0.5 0.4 0.9c0.5 1.5 0.6 1.5 1.7 0.5q0.5-0.6 1.1-1.1 0.6-0.5 1.3-0.9 0.6-0.5 1.3-0.9 0.7-0.4 1.4-0.7 1.1-0.5 2.3-0.9 1.2-0.4 2.4-0.6 1.2-0.3 2.5-0.3 1.2-0.1 2.5 0 1.1 0.1 2.2 0.3 1.2 0.2 2.3 0.6 1.1 0.3 2.1 0.8 1.1 0.5 2 1.1 0.3 0.2 0.5 0.4 0.3 0.1 0.5 0.3 0.3 0.2 0.5 0.3 0.3 0.1 0.6 0.3 0.2 0 0.4 0.1 0.2 0 0.4 0 0.2 0 0.4 0 0.2-0.1 0.4-0.1c1.9-0.8 3.8-1.8 5.7-2.4q0.8-0.2 1.6-0.4 0.8-0.2 1.7-0.4 0.8-0.2 1.6-0.3 0.8-0.1 1.7-0.2 0.7-0.1 1.4-0.2 0.7-0.1 1.4-0.1 0.7 0 1.4 0 0.7 0 1.4 0c4.3 0.2 8.4 1.1 11.9 3.7q0.9 0.6 1.7 1.4 0.7 0.7 1.4 1.6 0.6 0.8 1.1 1.8 0.5 1 0.8 2 0.1 0.2 0.1 0.5 0.1 0.2 0.1 0.5 0.1 0.2 0.1 0.5 0 0.3 0 0.5c0.1 6.2 0.2 12.3 0.2 18.4 0 2.6-0.1 5.2-0.2 7.8q0 1.6-0.4 3.2-0.4 1.6-1.1 3.1-0.7 1.5-1.7 2.8-1 1.3-2.3 2.4-0.8 0.7-1.7 1.3-0.9 0.7-1.9 1.2-1 0.6-2 1-1 0.4-2 0.8-1.3 0.4-2.7 0.7-1.3 0.3-2.7 0.4-1.3 0.2-2.7 0.3-1.3 0.1-2.7 0.1c-3.3 0-6.6 0.2-9.8 0.2q-0.6 0-1.1-0.1-0.5 0-1-0.2-0.5-0.2-0.9-0.4-0.5-0.3-0.9-0.6c-1.6-1.3-1.5-4.8 0.6-5.8q0.5-0.2 0.9-0.4 0.5-0.1 0.9-0.2 0.5-0.1 0.9-0.1 0.5-0.1 1-0.1c2.5 0 5.1 0 7.7-0.1q0.9 0 1.8 0 0.9-0.1 1.8-0.3 0.9-0.1 1.8-0.4 0.9-0.2 1.7-0.5 1.1-0.4 2-1 0.9-0.6 1.7-1.4 0.8-0.8 1.4-1.8 0.5-0.9 0.9-2 0.1-0.5 0.2-1 0.1-0.6 0.1-1.1 0-0.5 0-1.1-0.1-0.5-0.2-1c-0.1-0.6-0.4-0.5-0.8-0.4q-0.8 0.5-1.7 0.9-1 0.6-2.1 1.1-1 0.5-2.1 0.9-1.1 0.4-2.3 0.8-1.1 0.3-2.3 0.6-1.6 0.3-3.2 0.4-1.6 0-3.3-0.3-1.6-0.2-3.1-0.8-1.6-0.6-3-1.4c-0.3-0.2-0.6-0.4-0.2-0.8q3.3-4.3 6.6-8.6c0 0 0.1 0 0.2-0.1zm-33.6-4c0 0.8 0 1.6 0.1 2.3q0 0.5 0.1 0.9 0.1 0.4 0.3 0.8 0.1 0.3 0.4 0.7 0.3 0.3 0.6 0.6 0.5 0.4 1 0.7 0.5 0.3 1.1 0.5 0.6 0.2 1.2 0.3 0.6 0.2 1.2 0.2 1 0.1 2 0 1 0 1.9-0.2 1-0.2 2-0.6 0.9-0.3 1.8-0.8 1-0.5 1.9-1.3 0.9-0.8 1.5-1.8 0.7-1 1.1-2.1 0.4-1.1 0.6-2.3 0.2-1.5 0.4-3 0-0.3 0-0.5 0-0.3 0-0.6 0-0.2 0-0.5 0-0.3-0.1-0.5-0.1-0.5-0.2-1-0.1-0.5-0.2-1-0.2-0.4-0.3-0.9-0.1-0.5-0.3-1-0.1-0.4-0.3-0.8-0.2-0.5-0.4-0.9-0.3-0.4-0.5-0.8-0.3-0.4-0.6-0.7-0.6-0.6-1.3-1-0.7-0.4-1.4-0.7-0.8-0.2-1.6-0.3-0.8 0-1.6 0.1-0.8 0.2-1.6 0.4-0.8 0.2-1.6 0.6-0.7 0.3-1.5 0.7-0.7 0.5-1.3 1-0.7 0.5-1.2 1-0.6 0.6-1 1.2-0.5 0.7-0.8 1.4-0.3 0.8-0.5 1.5-0.2 1.1-0.4 2.1-0.1 1.1-0.2 2.1-0.1 1.1-0.2 2.1-0.1 1.1-0.1 2.2z"/>
			<path id="Trazado_156084" class="s0" d="m59 22.4c-1.6 0.3-3.1 0.4-4.5 0.8-3.9 1-7 3.1-8.6 6.9q-0.2 0.6-0.4 1.3-0.2 0.7-0.3 1.4-0.1 0.7-0.2 1.4 0 0.7 0 1.4-0.2 5.8-0.3 11.7c0 1.9-0.3 3.6-1.9 4.7q-0.2 0.2-0.5 0.4-0.3 0.2-0.6 0.3-0.3 0.1-0.6 0.3-0.3 0.1-0.6 0.1c-2.5 0.5-4.9 0.4-6.9-1.4q-0.3-0.3-0.6-0.6-0.2-0.3-0.4-0.7-0.2-0.4-0.3-0.7-0.1-0.4-0.1-0.8-0.1-7.1-0.2-14.1c0-1.5 0.1-2.9 0.1-4.3q0-0.5-0.1-1 0-0.4-0.1-0.9 0-0.5-0.1-0.9-0.1-0.5-0.2-1-0.1-0.4-0.4-0.9-0.2-0.4-0.6-0.8-0.3-0.4-0.7-0.7-0.4-0.3-0.9-0.5-0.5-0.4-1.1-0.6-0.6-0.2-1.2-0.4-0.7-0.1-1.3-0.2-0.6-0.1-1.3 0-0.5 0-1.1 0.1-0.6 0.1-1.2 0.3-0.5 0.1-1.1 0.4-0.5 0.2-1 0.4-0.7 0.3-1.3 0.7-0.6 0.4-1.2 0.8-0.5 0.4-1.1 0.9-0.5 0.5-0.9 1-0.6 0.7-1.1 1.5-0.5 0.9-0.8 1.7-0.3 0.9-0.4 1.8-0.2 1-0.2 1.9c0 4.5 0 9 0 13.6 0 3.5-2.1 5.3-5.3 5.6q-0.6 0.1-1.2 0.1-0.6 0-1.2-0.1-0.6-0.1-1.2-0.3-0.5-0.2-1.1-0.4-0.6-0.3-1.1-0.8-0.5-0.5-0.9-1.1-0.3-0.5-0.5-1.2-0.2-0.7-0.2-1.4c0-9 0-18 0-27.1q0-0.4 0-0.8 0.1-0.4 0.1-0.9 0.1-0.4 0.3-0.8 0.1-0.4 0.3-0.8 0.3-0.5 0.7-0.9 0.3-0.5 0.8-0.8 0.5-0.3 1-0.5 0.5-0.2 1.1-0.3 0.8-0.2 1.6-0.3 0.8 0 1.6 0.1 0.8 0.2 1.5 0.5 0.7 0.3 1.4 0.8 0.3 0.3 0.7 0.6 0.3 0.3 0.5 0.7 0.3 0.4 0.5 0.8 0.2 0.4 0.3 0.9c0.5 1.2 0.6 1.2 1.6 0.4q1-0.8 2-1.5 1-0.7 2.1-1.3 1.1-0.6 2.2-1.1 1.1-0.6 2.3-1 1.3-0.6 2.8-0.9 1.4-0.3 2.9-0.3 1.4-0.1 2.9 0.2 1.4 0.2 2.8 0.7 0.9 0.3 1.8 0.7 0.9 0.4 1.7 0.9 0.8 0.5 1.6 1.1 0.8 0.5 1.5 1.2 1.5 1.3 2.9 2.6 0.1 0.2 0.3 0.3 0.2 0 0.3 0 0.2 0 0.4 0 0.1-0.1 0.2-0.3 1-1 2.1-1.9 0.5-0.6 1.2-1 0.7-0.4 1.5-0.5 0.8-0.2 1.6-0.1 0.7 0 1.5 0.3 0.9 0.3 1.7 0.7 0.9 0.4 1.6 0.9 0.8 0.5 1.5 1.1 0.7 0.7 1.3 1.4 0.1 0.2 0.3 0.5z"/>
			<path id="Trazado_156085" class="s0" d="m52.8 15.3c0.8-0.3 1.7-0.6 2.6-0.8q0.8-0.2 1.7-0.3 0.9-0.2 1.8-0.3 0.8-0.1 1.7-0.1 0.9 0 1.8 0 1.3 0 2.7 0.3 1.3 0.2 2.6 0.6 1.2 0.4 2.4 1 1.2 0.6 2.3 1.3 1.1 0.7 1.9 1.6 0.9 1 1.5 2 0.6 1.1 0.9 2.3 0.4 1.2 0.4 2.5c0.1 2.3 0.2 4.5 0.2 6.8q0 7.7 0.1 15.3 0 0.4-0.1 0.8 0 0.4-0.1 0.8-0.1 0.4-0.2 0.8-0.1 0.4-0.3 0.7-0.3 0.5-0.7 1-0.4 0.4-0.9 0.7-0.4 0.3-1 0.5-0.5 0.3-1.1 0.3-0.7 0.2-1.5 0.3-0.8 0-1.6-0.1-0.8-0.1-1.6-0.4-0.7-0.3-1.4-0.7-0.6-0.3-1-0.8-0.4-0.4-0.7-0.9-0.3-0.6-0.4-1.2-0.2-0.6-0.2-1.2 0-8.4 0-16.9 0-1.1-0.1-2.2-0.1-1.1-0.4-2.1-0.3-1.1-0.8-2.1-0.4-1-1-1.9-0.5-0.9-1.1-1.6-0.7-0.8-1.4-1.5-0.7-0.7-1.5-1.2-0.8-0.6-1.7-1.1c-1.2-0.7-2.5-1.3-3.7-2 0 0-0.1-0.2-0.1-0.2z"/>
			<path id="Trazado_156086" class="s0" d="m60.9 5q0-0.8 0.3-1.6 0.3-0.7 0.8-1.3 0.5-0.6 1.1-1 0.7-0.5 1.5-0.6 0.9-0.3 1.9-0.4 0.9-0.1 1.8-0.1 1 0 1.9 0.1 1 0.2 1.9 0.4 0.8 0.3 1.6 0.8 0.7 0.5 1.2 1.3 0.4 0.7 0.6 1.6 0.1 0.9-0.1 1.7-0.1 0.4-0.2 0.6-0.2 0.3-0.4 0.6-0.2 0.2-0.4 0.5-0.3 0.2-0.6 0.3-0.4 0.3-0.8 0.5-0.4 0.2-0.8 0.3-0.5 0.2-0.9 0.3-0.5 0.1-0.9 0.2-0.9 0.3-1.9 0.3-0.9 0.1-1.9 0-0.9-0.2-1.8-0.5-0.9-0.3-1.7-0.7-0.5-0.2-0.9-0.6-0.4-0.3-0.7-0.8-0.3-0.4-0.4-0.9-0.2-0.5-0.2-1z"/>
		</g>
	</g>
</svg>