<svg version="1.2" xmlns="http://www.w3.org/2000/svg" viewBox="0 0 117 75" width="117" height="75">
	<title>onedrive-1-svg</title>
	<defs>
		<clipPath clipPathUnits="userSpaceOnUse" id="cp1">
			<path d="m0 0h116.55v74.67h-116.55z"/>
		</clipPath>
	</defs>
	<style>
		.s0 { fill: #099d39 } 
	</style>
	<g id="Grupo_129821">
		<g id="Clip-Path: Grupo_129820" clip-path="url(#cp1)">
			<filter id="f0">
				<feFlood flood-color="#ffffff" flood-opacity="1" />
				<feBlend mode="normal" in2="SourceGraphic"/>
				<feComposite in2="SourceAlpha" operator="in" />
			</filter>
			<g id="Grupo_129820" filter="url(#f0)">
				<path id="Trazado_156493" fill-rule="evenodd" class="s0" d="m93 49.8l20.7 12.4q0 0 0 0zm20.7 12.4q-1.5 2.8-3.8 5.2-2.2 2.3-4.9 3.9-2.8 1.7-5.9 2.5-3.1 0.9-6.3 0.9h-63.7q-3.5 0-6.9-0.9-3.5-0.8-6.6-2.5-3.1-1.6-5.7-3.9-2.7-2.3-4.7-5.2c-3-4.4-4.8-9.5-5.2-14.7-0.3-5.3 0.8-10.6 3.2-15.3 2.4-4.7 6.1-8.7 10.6-11.4 4.5-2.8 9.6-4.3 14.9-4.4 3.9-5.9 9.4-10.5 15.9-13.4 6.5-2.8 13.6-3.7 20.6-2.5 6.9 1.2 13.4 4.3 18.6 9.1 5.2 4.8 8.9 10.9 10.6 17.8 4 0.2 7.8 1.5 11.2 3.6 3.3 2.1 6.1 5.1 8 8.5 1.9 3.5 2.9 7.4 2.9 11.4 0 3.9-0.9 7.8-2.8 11.3zm-28-33.8q1.2-0.4 2.3-0.6 1.2-0.2 2.4-0.4 1.2-0.1 2.4-0.1-1.2 0-2.4 0.1-1.2 0.2-2.4 0.4-1.1 0.2-2.3 0.6-1.1 0.4-2.2 0.8l-14.6 6.2-11.2 4.7-21.3 9-9.6 4 9.6-4 21.3-9 11.2-4.7 14.6-6.2q1.1-0.4 2.2-0.8z"/>
			</g>
		</g>
	</g>
</svg>