<svg version="1.2" xmlns="http://www.w3.org/2000/svg" viewBox="0 0 300 192" width="300" height="192">
	<title>onedrive-1-svg</title>
	<defs>
		<clipPath clipPathUnits="userSpaceOnUse" id="cp1">
			<path d="m286.47 9v174.58h-272.47v-174.58z"/>
		</clipPath>
	</defs>
	<style>
		.s0 { fill: #099d39 } 
	</style>
	<g id="Grupo_129821">
		<g id="Clip-Path: Grupo_129820" clip-path="url(#cp1)">
			<g id="Grupo_129820">
				<path id="Trazado_156493" fill-rule="evenodd" class="s0" d="m231.5 125.5l48.3 29q0 0 0 0zm48.4 28.9c-2.4 4.4-5.3 8.5-8.8 12.1-3.4 3.5-7.3 6.7-11.6 9.2-4.2 2.6-8.8 4.5-13.6 5.8-4.8 1.4-9.8 2-14.8 2h-149c-5.4 0-10.9-0.6-16.2-1.9-5.3-1.3-10.4-3.3-15.3-5.8-4.8-2.5-9.4-5.6-13.5-9.3-4.1-3.6-7.7-7.7-10.8-12.2-7.1-10.1-11.3-22-12.1-34.3-0.8-12.4 1.7-24.7 7.4-35.7 5.6-11 14.2-20.3 24.7-26.8 10.5-6.5 22.6-10 35-10.2 9-13.8 21.9-24.6 37-31.2 15.2-6.6 31.9-8.7 48.1-6 16.3 2.7 31.4 10.1 43.6 21.3 12.1 11.1 20.8 25.6 24.9 41.6 9.2 0.6 18.2 3.5 26 8.5 7.8 5 14.2 11.8 18.7 19.9 4.5 8.1 6.9 17.2 6.9 26.5 0 9.3-2.2 18.4-6.6 26.5zm-65.4-79q2.7-0.8 5.4-1.4 2.8-0.6 5.6-0.9 2.8-0.3 5.6-0.3-2.8 0-5.6 0.3-2.8 0.3-5.6 0.9-2.7 0.6-5.4 1.4-2.7 0.8-5.3 2l-34.1 14.3-26.1 11-49.9 21-22.4 9.4 22.4-9.4 50-21 26-11 34.1-14.3q2.6-1.1 5.3-2z"/>
			</g>
		</g>
	</g>
</svg>