<svg version="1.2" xmlns="http://www.w3.org/2000/svg" viewBox="0 0 86 86" width="86" height="86">
	<title>Grupo 129748-svg</title>
	<defs>
		<clipPath clipPathUnits="userSpaceOnUse" id="cp1">
			<path d="m0 0h85.23v85.47h-85.23z"/>
		</clipPath>
	</defs>
	<style>
		.s0 { fill: #099d39 } 
	</style>
	<g id="Clip-Path: Grupo_129747" clip-path="url(#cp1)">
		<g id="Grupo_129747">
			<path id="Trazado_156063" class="s0" d="m85.2 27.8l-20.7 14q-1.2 1-2.8 1.5-1.5 0.4-3.1 0.3-1.6-0.2-3-0.9-1.4-0.8-2.5-2v22.5h28.3c0 0 4.2-0.6 3.8-6z"/>
			<path id="Trazado_156064" class="s0" d="m85 20.8q0.1-0.7-0.2-1.4-0.2-0.6-0.7-1.1-0.5-0.5-1.1-0.8-0.7-0.2-1.4-0.2h-28.5v16.8l6.1 3.8z"/>
			<path id="Trazado_156065" class="s0" d="m25 51c3 0 5.5-4.1 5.5-9 0-5-2.5-9-5.5-9-3 0-5.5 4-5.5 9 0 4.9 2.5 9 5.5 9z"/>
			<path id="Trazado_156066" fill-rule="evenodd" class="s0" d="m0 8.6l50-8.6v85.5l-50-9.8zm13.7 33.3c0 8.4 5.1 15.2 11.4 15.2 6.3 0 11.4-6.8 11.4-15.2 0-8.3-5.1-15.1-11.4-15.1-6.3 0-11.4 6.8-11.4 15.1z"/>
		</g>
	</g>
</svg>