<svg id="Grupo_129748" data-name="Grupo 129748" xmlns="http://www.w3.org/2000/svg" xmlns:xlink="http://www.w3.org/1999/xlink" width="85.235" height="85.469" viewBox="0 0 85.235 85.469">
  <defs>
    <clipPath id="clip-path">
      <rect id="Rectángulo_38826" data-name="Rectángulo 38826" width="85.235" height="85.469" fill="none"/>
    </clipPath>
  </defs>
  <g id="Grupo_129747" data-name="Grupo 129747" clip-path="url(#clip-path)">
    <path id="Trazado_156063" data-name="Trazado 156063" d="M263.093,120.88l-20.72,14.02a8.255,8.255,0,0,1-11.385-1.124v22.483h28.29s4.14-.576,3.795-6.007Z" transform="translate(-177.858 -93.076)" fill="#fff"/>
    <path id="Trazado_156064" data-name="Trazado 156064" d="M262.863,78.838a3.133,3.133,0,0,0-3.355-3.425h-28.52V92.126l6.1,3.885Z" transform="translate(-177.858 -58.065)" fill="#fff"/>
    <path id="Trazado_156065" data-name="Trazado 156065" d="M90.363,161.4c3.024,0,5.476-4.022,5.476-8.982s-2.452-8.982-5.476-8.982-5.476,4.022-5.476,8.982,2.452,8.982,5.476,8.982" transform="translate(-65.362 -110.441)" fill="#fff"/>
    <path id="Trazado_156066" data-name="Trazado 156066" d="M0,75.667l50.025,9.8V0L0,8.632ZM25.135,26.838c6.29,0,11.389,6.787,11.389,15.16s-5.1,15.16-11.389,15.16S13.745,50.371,13.745,42s5.1-15.16,11.39-15.16" fill="#fff"/>
  </g>
</svg>
