<svg version="1.2" xmlns="http://www.w3.org/2000/svg" viewBox="0 0 77 87" width="77" height="87">
	<title>saus-1-svg</title>
	<defs>
		<clipPath clipPathUnits="userSpaceOnUse" id="cp1">
			<path d="m0 0h77v86.44h-77z"/>
		</clipPath>
	</defs>
	<style>
		.s0 { fill: #049d39 } 
	</style>
	<g id="Clip-Path: Grupo_129762" clip-path="url(#cp1)">
		<filter id="f0">
			<feFlood flood-color="#ffffff" flood-opacity="1" />
			<feBlend mode="normal" in2="SourceGraphic"/>
			<feComposite in2="SourceAlpha" operator="in" />
		</filter>
		<g id="Grupo_129762" filter="url(#f0)">
			<path id="Trazado_156088" fill-rule="evenodd" class="s0" d="m16.7 13.9c1.1-2.3 2.5-4.4 4.2-6.3 1.8-1.8 3.8-3.4 6-4.6 2.2-1.3 4.6-2.1 7.1-2.6q1.1-0.2 2.1-0.4h4.8c1.3 0.3 2.6 0.5 3.9 0.8 2.2 0.6 4.4 1.6 6.4 2.8 1.9 1.2 3.7 2.7 5.3 4.5 1.5 1.7 2.8 3.7 3.8 5.8 1 2.1 1.6 4.3 2 6.6q0 0.4 0.1 0.7 0 0.3 0.2 0.6 0.1 0.3 0.3 0.6 0.2 0.3 0.4 0.5 0.3 0.3 0.5 0.7 0.3 0.3 0.4 0.7 0.2 0.5 0.3 0.9 0 0.4 0 0.8 0 6.4 0 12.7 0 0.5-0.1 1-0.1 0.5-0.3 0.9-0.1 0.4-0.4 0.8-0.3 0.4-0.7 0.8-0.1 0.1-0.2 0.3-0.1 0.1-0.2 0.3-0.1 0.2-0.1 0.4 0 0.2 0 0.4 0 0.8 0 1.7 0 0.8-0.2 1.6-0.1 0.9-0.3 1.7-0.2 0.8-0.5 1.6-0.8 2-2.1 3.7-1.4 1.8-3.2 3-1.8 1.3-3.8 2-2.1 0.6-4.3 0.7c-3 0-6 0-9 0-0.8 0.1-1.6-0.2-2.2-0.8-0.6-0.5-1-1.3-1-2.2 0-0.8 0.4-1.6 1-2.2 0.6-0.6 1.4-0.9 2.2-0.8 2.7-0.1 5.3 0 8 0q0.3 0 0.6 0 0.3-0.1 0.6-0.1 0.3 0 0.6 0 0.3-0.1 0.6-0.1 1.5-0.3 2.7-1.1 1.3-0.7 2.2-1.8 0.9-1.1 1.5-2.5 0.5-1.4 0.5-2.8c0.1-1.5 0.3-3-1.3-3.9q-0.1 0.2-0.2 0.4-0.1 0.2-0.2 0.4 0 0.2-0.1 0.4-0.1 0.2-0.2 0.4c-1 1.6-1.9 3.3-2.9 4.8q-0.3 0.5-0.8 0.9-0.4 0.3-1 0.6-0.5 0.3-1.1 0.4-0.6 0.1-1.2 0c-2.7 0-5.4 0-8.1 0q-0.9 0-1.7 0.2-0.9 0.1-1.7 0.5-0.8 0.4-1.5 1-0.7 0.6-1.2 1.3 0 0 0 0.1-0.1 0-0.1 0.1-0.1 0-0.1 0 0 0.1-0.1 0.1c-5.4-2.2-8.8-6.3-11-11.7q-0.3 0.5-0.7 0.9-0.4 0.4-0.9 0.7-0.5 0.3-1 0.5-0.5 0.2-1.1 0.3-1 0.2-2-0.1-1-0.3-1.8-0.9-0.8-0.7-1.3-1.6-0.5-0.9-0.6-1.9c0-4.5 0-8.9 0-13.4q0.1-0.4 0.2-0.9 0.1-0.4 0.3-0.8 0.1-0.4 0.4-0.8 0.3-0.3 0.6-0.6 0.1-0.2 0.2-0.3 0.1-0.2 0.2-0.4 0.1-0.1 0.2-0.3 0-0.2 0.1-0.4c0.3-2.5 1-5 2-7.3zm33.1-3.9c-3.3-2.7-7.5-4.1-11.8-4-4.3 0.2-8.4 1.8-11.6 4.7-3.1 2.9-5.2 6.8-5.7 11.1q0 0.1 0 0.1 0 0.1 0 0.2 0.1 0.1 0.1 0.2 0 0.1 0.1 0.1c0.3 0.5 0.7 0.9 1.1 1.3 3.3-7.1 8.1-12.2 16.4-12.2 8.4-0.1 13.3 5.1 16.6 12.2 1.5-1.6 1.5-1.6 1.2-3-0.8-4.2-3.1-8-6.4-10.7z"/>
			<path id="Trazado_156089" class="s0" d="m67.5 59.2c-1.4-1.3-3-2.3-4.5-3.5l-0.6 0.7q-1.1 1.6-2.6 2.8-1.5 1.3-3.2 2.2-1.7 0.9-3.6 1.4-1.8 0.6-3.8 0.7c-3.4 0.2-6.9 0.2-10.3 0.1q-1 0-2-0.3-1-0.3-1.8-0.8-0.8-0.5-1.5-1.3-0.6-0.8-1-1.7-0.1-0.1-0.2-0.2-0.1-0.1-0.2-0.2-0.1-0.1-0.2-0.2-0.1 0-0.3-0.1-1.2-0.4-2.4-1-1.2-0.5-2.3-1.2-1.1-0.7-2.2-1.5-1-0.8-1.9-1.8-0.2-0.1-0.4-0.3-0.1-0.1-0.3-0.1-0.2-0.1-0.5-0.1-0.2 0-0.4 0.1-2.4 0.6-4.6 1.6-2.2 1-4.3 2.4-2 1.4-3.8 3.1-1.7 1.7-3.2 3.7-1.4 2-2.5 4.1-1.1 2.2-1.7 4.5-0.7 2.4-1 4.8-0.3 2.4-0.2 4.8 0 0.9 0.3 1.8 0.4 0.8 1 1.4 0.7 0.7 1.5 1 0.8 0.4 1.7 0.3 34 0 68 0 0.1 0 0.3 0 0.1 0 0.3 0 0.1 0 0.2 0 0.2-0.1 0.3-0.1 0.6-0.1 1.2-0.5 0.5-0.3 1-0.7 0.4-0.5 0.7-1 0.3-0.6 0.5-1.2v-4.7q-0.1-0.7-0.2-1.4-0.3-2.6-1.1-5-0.7-2.4-1.9-4.7-1.2-2.2-2.8-4.2-1.6-2-3.5-3.7z"/>
		</g>
	</g>
</svg>