<svg id="Grupo_129763" data-name="Grupo 129763" xmlns="http://www.w3.org/2000/svg" xmlns:xlink="http://www.w3.org/1999/xlink" width="77" height="86.436" viewBox="0 0 77 86.436">
  <defs>
    <clipPath id="clip-path">
      <rect id="Rectángulo_38830" data-name="Rectángulo 38830" width="77" height="86.436" fill="#049d39"/>
    </clipPath>
  </defs>
  <g id="Grupo_129762" data-name="Grupo 129762" clip-path="url(#clip-path)">
    <path id="Trazado_156088" data-name="Trazado 156088" d="M76.042,21.213a2.72,2.72,0,0,1-.682,1.352,4.8,4.8,0,0,0-1.44,3.151c-.041,4.445-.065,8.891,0,13.336a4.983,4.983,0,0,0,5.664,4.577,5.359,5.359,0,0,0,3.695-2.455c2.179,5.4,5.6,9.516,11.041,11.729a3.722,3.722,0,0,0,.28-.3,7.059,7.059,0,0,1,6.1-2.983c2.7.019,5.4-.013,8.1.01a4.607,4.607,0,0,0,4.089-1.939c1.043-1.521,1.937-3.147,2.858-4.749a14.329,14.329,0,0,0,.7-1.609c1.669.883,1.431,2.4,1.373,3.851a8.635,8.635,0,0,1-6.9,8.175,12.421,12.421,0,0,1-2.428.206c-2.672.025-5.346-.016-8.018.02a3.017,3.017,0,1,0,.059,6.023c2.982.008,5.965.04,8.947-.016a14.739,14.739,0,0,0,13.405-9.4,15.988,15.988,0,0,0,.991-6.614,1.649,1.649,0,0,1,.544-1.4,4.628,4.628,0,0,0,1.469-3.47q0-6.33,0-12.661a4.233,4.233,0,0,0-1.212-3.144,3.623,3.623,0,0,1-1.027-2.364A24,24,0,0,0,106.178.84C104.887.5,103.564.277,102.256,0H97.529C96.82.129,96.108.249,95.4.39A24.105,24.105,0,0,0,76.042,21.213m41.53-.473c.274,1.367.274,1.367-1.187,2.961-3.284-7.138-8.238-12.295-16.606-12.243-8.255.052-13.132,5.189-16.384,12.264-.4-.455-.785-.859-1.121-1.3a1.011,1.011,0,0,1-.2-.656,17.97,17.97,0,0,1,35.5-1.024" transform="translate(-61.383)" fill="#049d39"/>
    <path id="Trazado_156089" data-name="Trazado 156089" d="M67.515,318.562c-1.407-1.256-3-2.306-4.514-3.459l-.568.7a18.031,18.031,0,0,1-13.2,7.037c-3.446.214-6.915.184-10.37.116a6.818,6.818,0,0,1-6.3-4.078,1.571,1.571,0,0,0-.823-.715,22.783,22.783,0,0,1-8.883-5.479,1.394,1.394,0,0,0-1.531-.444A28.218,28.218,0,0,0,5.416,323.066a28.512,28.512,0,0,0-5.4,18.217,4.417,4.417,0,0,0,4.53,4.515q33.96,0,67.921,0a5.136,5.136,0,0,0,1.165-.123A4.684,4.684,0,0,0,77,342.254v-4.727c-.069-.468-.142-.935-.207-1.4a27.981,27.981,0,0,0-9.278-17.561" transform="translate(0 -259.362)" fill="#049d39"/>
  </g>
</svg>
