<svg id="Grupo_129750" data-name="Grupo 129750" xmlns="http://www.w3.org/2000/svg" xmlns:xlink="http://www.w3.org/1999/xlink" width="85.339" height="85.469" viewBox="0 0 85.339 85.469">
  <defs>
    <clipPath id="clip-path">
      <rect id="Rectángulo_38827" data-name="Rectángulo 38827" width="85.339" height="85.469" fill="#049d39"/>
    </clipPath>
  </defs>
  <g id="Grupo_129749" data-name="Grupo 129749" clip-path="url(#clip-path)">
    <path id="Trazado_156067" data-name="Trazado 156067" d="M20.976,86.445l-9.7-4.225a2.34,2.34,0,0,1-.216.3A42.2,42.2,0,0,0,.685,103.563C.4,105.139.226,106.736,0,108.324v1.5H17.358a82.832,82.832,0,0,1,3.619-23.379" transform="translate(-0.001 -68.489)" fill="#049d39"/>
    <path id="Trazado_156068" data-name="Trazado 156068" d="M17.351,263.485H0v1.5a4.114,4.114,0,0,1,.152.641A41.86,41.86,0,0,0,5.51,283.113a40.777,40.777,0,0,0,5.8,7.942l9.664-4.216a82.8,82.8,0,0,1-3.626-23.354" transform="translate(0 -219.484)" fill="#049d39"/>
    <path id="Trazado_156069" data-name="Trazado 156069" d="M157.493.488a5.724,5.724,0,0,0-4.015,1.991,39.842,39.842,0,0,0-7.465,12.682c-.114.3-.211.6-.326.93a66.4,66.4,0,0,0,17.005,2.571V0h-1.5c-1.233.167-2.461.39-3.7.488" transform="translate(-121.357)" fill="#049d39"/>
    <path id="Trazado_156070" data-name="Trazado 156070" d="M279.645,13.842a36.225,36.225,0,0,0-7.663-12.065A3.619,3.619,0,0,0,269.748.659C268.156.478,266.573.224,264.986,0h-1.5V18.663a66.022,66.022,0,0,0,17.025-2.6c-.306-.786-.57-1.509-.867-2.219" transform="translate(-219.485)" fill="#049d39"/>
    <path id="Trazado_156071" data-name="Trazado 156071" d="M281.59,111.174a69.118,69.118,0,0,1-17.823,2.705v20h21.292a80.986,80.986,0,0,0-3.469-22.708" transform="translate(-219.719 -92.608)" fill="#049d39"/>
    <path id="Trazado_156072" data-name="Trazado 156072" d="M119.742,133.984h21.3v-20a69.539,69.539,0,0,1-17.836-2.694,80.514,80.514,0,0,0-3.463,22.7" transform="translate(-99.745 -92.704)" fill="#049d39"/>
    <path id="Trazado_156073" data-name="Trazado 156073" d="M141,283.583V263.548H119.731a80.554,80.554,0,0,0,3.463,22.727A69.406,69.406,0,0,1,141,283.583" transform="translate(-99.736 -219.536)" fill="#049d39"/>
    <path id="Trazado_156074" data-name="Trazado 156074" d="M263.746,283.709a68.8,68.8,0,0,1,17.84,2.658,80.7,80.7,0,0,0,3.449-22.7H263.746Z" transform="translate(-219.701 -219.637)" fill="#049d39"/>
    <path id="Trazado_156075" data-name="Trazado 156075" d="M388.971,109.783h17.36a42.723,42.723,0,0,0-11.319-27.572l-9.669,4.213a82.732,82.732,0,0,1,3.628,23.359" transform="translate(-320.992 -68.482)" fill="#049d39"/>
    <path id="Trazado_156076" data-name="Trazado 156076" d="M385.407,287.019l9.673,4.211a42.111,42.111,0,0,0,9.406-16.3,40.708,40.708,0,0,0,1.862-11.227H389.02a82.639,82.639,0,0,1-3.613,23.319" transform="translate(-321.045 -219.663)" fill="#049d39"/>
    <path id="Trazado_156077" data-name="Trazado 156077" d="M147.484,407.3a30.806,30.806,0,0,0,6.254,8.852c.334.321.7.759,1.111.825,2.372.388,4.759.681,7.223,1.018V399.2a66.064,66.064,0,0,0-17.052,2.6c.838,1.883,1.593,3.723,2.464,5.506" transform="translate(-120.802 -332.531)" fill="#049d39"/>
    <path id="Trazado_156078" data-name="Trazado 156078" d="M263.7,399.26v18.794c2.357-.32,4.6-.609,6.844-.947a2.168,2.168,0,0,0,1.084-.511c4.4-4.05,6.977-9.221,9.078-14.764A65.184,65.184,0,0,0,263.7,399.26" transform="translate(-219.659 -332.585)" fill="#049d39"/>
    <path id="Trazado_156079" data-name="Trazado 156079" d="M79.245,422.046a41.515,41.515,0,0,0,15.622,9.426,48.517,48.517,0,0,1-7.027-13.088l-8.595,3.661" transform="translate(-66.011 -348.516)" fill="#049d39"/>
    <path id="Trazado_156080" data-name="Trazado 156080" d="M338.3,431.5a41.53,41.53,0,0,0,15.6-9.427l-8.6-3.658a48.656,48.656,0,0,1-7,13.085" transform="translate(-281.801 -348.542)" fill="#049d39"/>
    <path id="Trazado_156081" data-name="Trazado 156081" d="M352.918,23.368c-2.2-3-11.045-8.391-15.609-9.521a46.082,46.082,0,0,1,7.16,13.117l8.448-3.6" transform="translate(-280.979 -11.535)" fill="#049d39"/>
    <path id="Trazado_156082" data-name="Trazado 156082" d="M94.994,14.235A41.448,41.448,0,0,0,79.4,23.64l8.587,3.653a48.167,48.167,0,0,1,7.009-13.058" transform="translate(-66.139 -11.858)" fill="#049d39"/>
  </g>
</svg>
