<svg version="1.2" xmlns="http://www.w3.org/2000/svg" viewBox="0 0 250 105" width="250" height="105">
	<title>sigob-1-svg</title>
	<defs>
		<clipPath clipPathUnits="userSpaceOnUse" id="cp1">
			<path d="m251.37-1.99v106.42h-254.17v-106.42z"/>
		</clipPath>
	</defs>
	<style>
		.s0 { fill: #0a9f39 } 
	</style>
	<g id="Clip-Path: Grupo_129816" clip-path="url(#cp1)">
		<g id="Grupo_129816">
			<path id="Trazado_156482" class="s0" d="m45.3 35.3q-1.4-0.5-2.7-0.8-1.3-0.4-2.7-0.7-1.4-0.2-2.8-0.3-1.3-0.2-2.7-0.2l-9.3-0.7q-0.6 0-1.2-0.1-0.6-0.1-1.2-0.2-0.5-0.1-1.1-0.3-0.6-0.2-1.1-0.4-0.3-0.1-0.5-0.3-0.2-0.2-0.4-0.5-0.1-0.2-0.2-0.5-0.1-0.3-0.1-0.6 0-1.5 2-2.4 0.7-0.2 1.4-0.4 0.7-0.2 1.4-0.3 0.8-0.1 1.5-0.1 0.8 0 1.5 0 0.7 0 1.4 0 0.6 0.1 1.3 0.1 0.7 0.1 1.4 0.3 0.6 0.1 1.3 0.3 0.4 0.1 0.9 0.3 0.4 0.2 0.8 0.4 0.4 0.2 0.8 0.5 0.4 0.3 0.8 0.6 0.2 0.2 0.5 0.5 0.2 0.3 0.4 0.6 0.2 0.3 0.3 0.6 0.2 0.3 0.3 0.7h14.4q-0.1-1-0.4-2-0.3-1-0.7-2-0.5-0.9-1.1-1.8-0.6-0.8-1.4-1.5-0.9-0.8-1.9-1.6-0.9-0.7-2-1.3-1.1-0.6-2.2-1.1-1.1-0.5-2.3-0.9-1.4-0.4-2.9-0.8-1.5-0.3-3-0.5-1.5-0.2-3-0.3-1.5-0.1-3-0.1-1.5 0-3 0-1.5 0.1-3 0.3-1.5 0.2-2.9 0.5-1.5 0.3-2.9 0.7-1.2 0.3-2.2 0.7-1.1 0.4-2.1 1-1 0.6-1.9 1.3-0.9 0.7-1.7 1.5-0.7 0.7-1.3 1.6-0.5 0.9-0.9 1.8-0.3 1-0.5 2-0.2 1-0.1 2.1-0.1 0.8 0.1 1.5 0.1 0.8 0.3 1.6 0.2 0.7 0.6 1.5 0.3 0.7 0.8 1.3 0.5 0.8 1.2 1.4 0.7 0.7 1.4 1.2 0.8 0.5 1.6 1 0.9 0.4 1.7 0.7 1.4 0.5 2.8 0.8 1.4 0.4 2.8 0.7 1.4 0.2 2.8 0.4 1.4 0.2 2.8 0.2l7.1 0.6q0.7 0 1.4 0.1 0.8 0.1 1.5 0.2 0.7 0.1 1.4 0.3 0.7 0.2 1.4 0.4 1.7 0.6 1.7 2 0 1.7-2.2 2.5-0.8 0.2-1.6 0.4-0.8 0.2-1.6 0.3-0.8 0.1-1.6 0.1-0.8 0.1-1.7 0-0.7 0-1.4 0-0.7 0-1.4-0.1-0.7-0.1-1.4-0.2-0.7-0.1-1.4-0.3-0.5-0.1-1-0.2-0.5-0.2-1-0.4-0.5-0.2-1-0.5-0.4-0.3-0.8-0.6-0.4-0.3-0.7-0.6-0.3-0.3-0.5-0.6-0.2-0.4-0.4-0.8-0.2-0.4-0.3-0.8h-14.5q0.1 1.1 0.3 2.1 0.2 1.1 0.7 2 0.4 1 1 1.9 0.6 0.9 1.4 1.6 0.9 0.9 1.9 1.7 1 0.8 2.1 1.4 1.1 0.7 2.3 1.2 1.2 0.5 2.4 0.8 1.6 0.5 3.2 0.9 1.6 0.3 3.3 0.6 1.6 0.2 3.3 0.3 1.6 0.1 3.3 0.1 1.6 0 3.1-0.1 1.6-0.1 3.2-0.3 1.5-0.2 3.1-0.5 1.5-0.3 3-0.7 1.2-0.4 2.2-0.8 1.1-0.5 2.1-1.1 1-0.6 2-1.3 0.9-0.7 1.7-1.6 0.7-0.8 1.2-1.7 0.6-0.9 0.9-1.9 0.4-1 0.5-2 0.2-1.1 0.2-2.1 0-0.9-0.1-1.7-0.1-0.8-0.3-1.5-0.2-0.8-0.5-1.6-0.4-0.7-0.8-1.4-0.5-0.7-1.1-1.3-0.7-0.7-1.4-1.2-0.7-0.5-1.5-0.9-0.8-0.5-1.6-0.7z"/>
			<path id="Trazado_156483" class="s0" d="m58.6 18v40.5h14.3v-40.5l-7.1 1.4z"/>
			<path id="Trazado_156484" class="s0" d="m71.8 2.8q-1.3-0.9-2.9-1.4-1.5-0.5-3.1-0.5-1.7 0-3.2 0.5-1.6 0.5-2.9 1.4-0.6 0.5-1 1.1-0.4 0.5-0.7 1.2-0.3 0.7-0.5 1.4-0.1 0.7-0.1 1.4 0 0.7 0.1 1.4 0.2 0.7 0.5 1.4 0.3 0.6 0.7 1.2 0.4 0.6 1 1 0.6 0.5 1.4 0.9 0.7 0.3 1.4 0.6 0.8 0.2 1.6 0.3 0.8 0.1 1.6 0.1 0.8 0 1.6-0.1 0.8-0.1 1.6-0.3 0.8-0.3 1.5-0.6 0.8-0.4 1.4-0.9 0.6-0.4 1-1 0.5-0.6 0.7-1.2 0.3-0.7 0.5-1.4 0.1-0.7 0.1-1.4 0-0.7-0.1-1.4-0.2-0.7-0.4-1.4-0.3-0.7-0.8-1.2-0.4-0.6-1-1.1z"/>
			<path id="Trazado_156485" fill-rule="evenodd" class="s0" d="m115.6 18.7h14.2v29.2q0 1.7-0.2 3.3-0.2 1.7-0.6 3.3-0.4 1.6-1.1 3.1-0.7 1.5-1.5 2.9-0.9 1.3-1.9 2.5-1.1 1.2-2.3 2.2-1.2 1-2.6 1.8-1.3 0.8-2.8 1.5-2.9 1.1-6 1.8-3 0.7-6.2 0.8-3.1 0.2-6.2-0.2-3.2-0.3-6.2-1.2-1.2-0.3-2.4-0.8-1.2-0.4-2.4-1-1.2-0.5-2.3-1.1-1.2-0.6-2.3-1.3v-10.7q1 0.7 2.1 1.4 1.1 0.7 2.3 1.3 1.1 0.6 2.3 1.1 1.2 0.4 2.4 0.8 1.2 0.4 2.4 0.6 1.2 0.3 2.4 0.5 1.2 0.2 2.4 0.3 1.2 0 2.4 0 6.9 0 10.5-2.9 3.6-2.9 3.6-9.4v-1.4q-0.4 0.3-0.7 0.7-1.7 1.6-3.6 2.8-1.9 1.3-4 2.1-2.1 0.9-4.3 1.3-2.3 0.4-4.6 0.4-1.3 0-2.6-0.2-1.2-0.1-2.5-0.4-1.3-0.3-2.5-0.7-1.2-0.5-2.4-1.1-1.1-0.5-2.1-1.2-0.9-0.7-1.8-1.5-0.9-0.8-1.7-1.8-0.7-0.9-1.4-1.9-0.6-1.1-1.1-2.3-0.5-1.1-0.8-2.4-0.3-1.2-0.5-2.5-0.1-1.2-0.1-2.5 0-1.3 0.1-2.5 0.2-1.3 0.5-2.5 0.3-1.2 0.8-2.4 0.5-1.2 1.1-2.3 0.7-1 1.4-1.9 0.8-1 1.7-1.8 0.9-0.8 1.8-1.5 1-0.7 2.1-1.2 1.2-0.6 2.4-1 1.2-0.5 2.5-0.8 1.3-0.3 2.5-0.4 1.3-0.1 2.6-0.1 1 0 2 0.1 1 0 1.9 0.2 1 0.2 2 0.4 0.9 0.2 1.8 0.6 0.9 0.3 1.7 0.7 0.8 0.3 1.6 0.7 0.7 0.5 1.5 1 0.7 0.5 1.4 1 0.5 0.3 0.9 0.7 0.4 0.3 0.8 0.7 0.4 0.4 0.8 0.8 0.4 0.4 0.8 0.8zm-3.3 22.4q0.7-0.7 1.4-1.6 0.7-0.8 1.3-1.7 0.6-0.9 1-1.9-0.4-1-1-1.9-0.6-0.9-1.3-1.7-0.7-0.9-1.5-1.6-0.8-0.7-1.7-1.4-0.8-0.5-1.6-0.9-0.9-0.4-1.8-0.7-1-0.3-1.9-0.4-1-0.1-1.9-0.1-0.7 0-1.4 0-0.7 0.1-1.4 0.2-0.6 0.2-1.3 0.4-0.6 0.2-1.3 0.4-0.5 0.3-1 0.6-0.5 0.3-0.9 0.7-0.5 0.4-0.9 0.8-0.3 0.5-0.6 1-0.3 0.5-0.6 1.1-0.2 0.5-0.3 1.1-0.2 0.6-0.3 1.2 0 0.6 0 1.2 0 0.6 0 1.2 0.1 0.6 0.3 1.2 0.1 0.6 0.3 1.1 0.3 0.6 0.6 1.1 0.3 0.5 0.6 0.9 0.4 0.5 0.8 0.9 0.5 0.4 1 0.7 0.5 0.3 1 0.6 0.6 0.3 1.3 0.5 0.6 0.2 1.3 0.3 0.7 0.2 1.4 0.2 0.7 0.1 1.4 0.1 0.9 0 1.9-0.2 1-0.1 1.9-0.4 0.9-0.2 1.8-0.7 0.9-0.4 1.7-0.9 0.9-0.7 1.7-1.4z"/>
			<path id="Trazado_156486" fill-rule="evenodd" class="s0" d="m145.2 55.7q-1.2-0.8-2.4-1.7-1.1-1-2.1-2.1-1-1-1.8-2.3-0.8-1.2-1.4-2.5-0.7-1.3-1.1-2.7-0.4-1.4-0.6-2.9-0.2-1.4-0.1-2.9-0.1-1.4 0.1-2.9 0.2-1.4 0.6-2.9 0.4-1.4 1-2.7 0.7-1.3 1.5-2.6 0.8-1.2 1.8-2.3 1-1 2.1-2 1.2-0.9 2.4-1.7 1.3-0.8 2.6-1.4 3.2-1.3 6.6-1.9 3.3-0.7 6.8-0.7 3.4 0 6.8 0.7 3.4 0.6 6.6 1.9 1.3 0.6 2.6 1.4 1.2 0.8 2.4 1.7 1.1 1 2.1 2 1 1.1 1.9 2.3 0.8 1.3 1.4 2.6 0.6 1.3 1 2.7 0.4 1.4 0.6 2.9 0.2 1.4 0.2 2.9 0 1.4-0.2 2.9-0.2 1.4-0.6 2.9-0.4 1.4-1 2.7-0.6 1.3-1.4 2.5-0.9 1.3-1.9 2.3-1 1.1-2.1 2.1-1.1 0.9-2.4 1.7-1.3 0.8-2.6 1.3-3.2 1.3-6.6 2-3.4 0.7-6.8 0.7-3.4 0-6.8-0.7-3.4-0.7-6.6-2-1.3-0.5-2.6-1.3zm5.6-21.4q-0.3 0.7-0.5 1.4-0.1 0.7-0.2 1.4-0.1 0.7-0.1 1.5 0 0.7 0.1 1.4 0.1 0.8 0.2 1.5 0.2 0.7 0.5 1.4 0.2 0.7 0.6 1.3 0.3 0.6 0.7 1.1 0.4 0.6 0.9 1 0.5 0.5 1.1 0.9 0.5 0.4 1.1 0.7 0.7 0.3 1.4 0.5 0.8 0.3 1.5 0.4 0.8 0.2 1.6 0.3 0.7 0 1.5 0 0.8 0 1.5 0 0.8-0.1 1.6-0.3 0.7-0.1 1.5-0.4 0.7-0.2 1.4-0.5 0.6-0.3 1.1-0.7 0.6-0.4 1.1-0.9 0.4-0.4 0.8-0.9 0.5-0.6 0.8-1.1 0.3-0.7 0.6-1.4 0.2-0.6 0.4-1.4 0.2-0.7 0.3-1.4 0-0.7 0-1.5 0-0.7 0-1.4-0.1-0.8-0.3-1.5-0.1-0.7-0.4-1.4-0.3-0.7-0.6-1.3-0.3-0.6-0.8-1.1-0.4-0.6-0.8-1-0.5-0.5-1.1-0.9-0.5-0.3-1.1-0.6-0.7-0.4-1.4-0.6-0.8-0.3-1.5-0.4-0.8-0.2-1.6-0.3-0.7 0-1.5 0-0.8 0-1.5 0.1-0.8 0-1.6 0.2-0.7 0.1-1.5 0.4-0.7 0.2-1.4 0.6-0.6 0.2-1.1 0.6-0.6 0.4-1.1 0.9-0.5 0.4-0.9 0.9-0.4 0.6-0.7 1.2-0.4 0.6-0.6 1.3z"/>
			<path id="Trazado_156487" fill-rule="evenodd" class="s0" d="m231.7 58.2q-1.3 0.5-2.6 0.8-1.3 0.4-2.6 0.5-1.4 0.2-2.7 0.2-1.4 0-2.7-0.2-1.3-0.1-2.6-0.5-1.3-0.3-2.5-0.8-1.2-0.5-2.4-1.2-0.9-0.5-1.8-1.2-1-0.7-1.8-1.5-0.8-0.8-1.5-1.6-0.8-0.9-1.4-1.8v7.6h-14.3v-53.7h14.3v21.5q0.6-1 1.4-1.8 0.7-0.9 1.5-1.7 0.9-0.8 1.8-1.4 0.9-0.7 1.9-1.3 2.3-1.3 4.9-2 2.6-0.6 5.3-0.6 2.6 0 5.2 0.7 2.6 0.6 5 1.9 1.1 0.7 2.1 1.5 1 0.8 1.8 1.8 0.9 0.9 1.7 1.9 0.7 1.1 1.3 2.2 0.6 1.3 1.1 2.7 0.5 1.3 0.8 2.7 0.3 1.4 0.4 2.9 0.2 1.4 0.2 2.8 0 1.5-0.2 2.9-0.1 1.4-0.4 2.8-0.3 1.4-0.8 2.7-0.5 1.4-1.1 2.6-0.6 1.2-1.3 2.2-0.8 1.1-1.6 2-0.9 1-1.9 1.8-1 0.8-2.1 1.4-1.2 0.7-2.4 1.2zm-16.4-10.2q0.7 0.3 1.3 0.4 0.7 0.2 1.4 0.3 0.7 0.1 1.4 0.1 0.7 0 1.4-0.1 0.6-0.1 1.2-0.2 0.7-0.2 1.3-0.4 0.6-0.3 1.2-0.6 0.5-0.3 1-0.7 0.5-0.4 0.9-0.9 0.4-0.4 0.8-1 0.4-0.5 0.7-1 0.3-0.6 0.5-1.3 0.2-0.6 0.4-1.3 0.1-0.6 0.2-1.3 0.1-0.7 0.1-1.4 0-0.6-0.1-1.3-0.1-0.7-0.2-1.4-0.2-0.7-0.4-1.3-0.2-0.6-0.5-1.3-0.3-0.5-0.7-1-0.4-0.5-0.8-1-0.4-0.5-0.9-0.9-0.5-0.4-1-0.7-0.6-0.3-1.2-0.6-0.6-0.2-1.3-0.4-0.6-0.2-1.2-0.3-0.7 0-1.4 0-0.7 0-1.4 0.1-0.7 0-1.4 0.2-0.6 0.2-1.3 0.4-0.7 0.3-1.3 0.6-0.7 0.3-1.3 0.7-0.6 0.4-1.2 0.9-0.5 0.5-1 1-0.6 0.5-1 1-0.5 0.6-1 1.3-0.4 0.6-0.8 1.3-0.4 0.6-0.7 1.3-0.3 0.7-0.5 1.4 0.2 0.8 0.5 1.5 0.3 0.6 0.7 1.3 0.4 0.7 0.8 1.3 0.5 0.6 1 1.2 0.4 0.5 1 1 0.5 0.6 1 1 0.6 0.5 1.2 0.9 0.6 0.3 1.3 0.7 0.6 0.3 1.3 0.5z"/>
			<path id="Trazado_156488" class="s0" d="m168.8 92.4l-5.6-15.2h-8l-5.7 15.2-5.3-15.2h-8.5l8.8 23.6h8.6l6.1-15.9 6 15.9h8.6l8.8-23.6h-8.4z"/>
			<path id="Trazado_156489" fill-rule="evenodd" class="s0" d="m209.9 85.4q0.3 1 0.5 2 0.2 1 0.3 2 0.1 1 0.1 2h-18.6q0 0.1 0 0.2 0.1 0.1 0.1 0.2 0.1 0.1 0.1 0.1 0.1 0.1 0.1 0.2 0.3 0.4 0.6 0.7 0.3 0.4 0.7 0.7 0.4 0.3 0.8 0.5 0.4 0.3 0.9 0.5 0.5 0.2 1.1 0.3 0.6 0.2 1.2 0.3 0.6 0.1 1.3 0.2 0.6 0 1.2 0 0.6 0 1.3-0.1 0.7 0 1.3-0.1 0.7-0.1 1.3-0.2 0.6-0.1 1.3-0.3 0.6-0.1 1.2-0.3 0.6-0.2 1.2-0.5 0.6-0.2 1.1-0.5 0.6-0.3 1.2-0.6v5.4q-0.7 0.4-1.3 0.8-0.7 0.3-1.4 0.7-0.7 0.3-1.4 0.5-0.8 0.3-1.5 0.5-0.8 0.2-1.6 0.4-0.9 0.2-1.7 0.3-0.9 0.1-1.7 0.1-0.9 0.1-1.7 0.1-1 0-2-0.1-1-0.1-1.9-0.3-1-0.2-1.9-0.5-1-0.3-1.9-0.7-0.8-0.3-1.5-0.8-0.8-0.5-1.4-1-0.7-0.6-1.3-1.2-0.6-0.7-1.1-1.4-0.9-1.4-1.4-3.1-0.5-1.7-0.5-3.4 0-1.7 0.4-3.4 0.5-1.7 1.4-3.1 0.5-0.7 1.1-1.4 0.5-0.6 1.2-1.2 0.6-0.5 1.4-1 0.7-0.4 1.4-0.8 0.9-0.4 1.8-0.7 0.9-0.3 1.8-0.5 0.9-0.2 1.9-0.3 0.9-0.1 1.9-0.1 0.9 0 1.9 0.1 0.9 0.1 1.8 0.4 0.9 0.2 1.8 0.5 0.9 0.4 1.7 0.9 0.8 0.4 1.5 1 0.6 0.6 1.2 1.2 0.6 0.7 1.1 1.4 0.5 0.8 0.9 1.6 0.4 0.9 0.7 1.8zm-7 1q0-0.2-0.1-0.4-0.1-0.1-0.1-0.3-0.1-0.2-0.2-0.3-0.1-0.2-0.1-0.3-0.2-0.3-0.4-0.6-0.2-0.3-0.5-0.5-0.2-0.3-0.5-0.5-0.3-0.2-0.6-0.4-0.3-0.1-0.7-0.3-0.4-0.1-0.7-0.2-0.4-0.1-0.8-0.1-0.3 0-0.7 0-0.4 0-0.8 0-0.5 0.1-0.9 0.1-0.4 0.1-0.7 0.3-0.4 0.1-0.8 0.3-0.5 0.3-0.9 0.6-0.4 0.3-0.7 0.7-0.3 0.4-0.5 0.9-0.3 0.5-0.4 1z"/>
			<path id="Trazado_156490" fill-rule="evenodd" class="s0" d="m244 85.7q0.4 1.6 0.4 3.3 0 1.7-0.4 3.4-0.4 1.6-1.1 3.2-0.3 0.6-0.8 1.3-0.4 0.6-0.9 1.2-0.6 0.5-1.1 1-0.6 0.5-1.3 0.8-0.7 0.4-1.4 0.7-0.8 0.3-1.5 0.5-0.8 0.2-1.6 0.3-0.8 0.1-1.6 0.1-0.8 0-1.5-0.1-0.8-0.1-1.6-0.3-0.7-0.2-1.5-0.5-0.7-0.3-1.4-0.7-0.6-0.3-1.1-0.7-0.5-0.4-1-0.9-0.5-0.4-0.9-0.9-0.5-0.5-0.9-1.1v4.5h-8.4v-31.8h8.4v12.7q0.4-0.5 0.9-1 0.4-0.6 0.9-1 0.5-0.5 1-0.9 0.6-0.4 1.1-0.7 1.4-0.8 3-1.2 1.5-0.4 3.1-0.4 1.6 0 3.1 0.4 1.5 0.4 2.9 1.2 0.7 0.4 1.3 0.9 0.5 0.5 1.1 1 0.5 0.6 0.9 1.2 0.5 0.6 0.8 1.3 0.7 1.5 1.1 3.2zm-8.5 5.7q0.1-0.4 0.2-0.7 0.1-0.4 0.1-0.8 0.1-0.4 0.1-0.8 0-0.4-0.1-0.9 0-0.4-0.1-0.8-0.1-0.4-0.2-0.7-0.2-0.4-0.4-0.8-0.1-0.3-0.4-0.6-0.2-0.3-0.4-0.6-0.3-0.3-0.6-0.5-0.3-0.2-0.6-0.4-0.3-0.2-0.7-0.4-0.3-0.1-0.7-0.2-0.4-0.1-0.8-0.2-0.4 0-0.8 0-0.4 0-0.8 0-0.4 0.1-0.8 0.2-0.4 0.1-0.8 0.2-0.4 0.2-0.8 0.4-0.4 0.2-0.7 0.4-0.4 0.2-0.7 0.5-0.4 0.3-0.7 0.6-0.3 0.3-0.6 0.6-0.3 0.4-0.5 0.7-0.3 0.4-0.5 0.8-0.2 0.4-0.4 0.8-0.2 0.4-0.3 0.9 0.1 0.4 0.3 0.8 0.2 0.4 0.4 0.8 0.2 0.4 0.5 0.7 0.3 0.4 0.6 0.8 0.2 0.3 0.5 0.6 0.3 0.3 0.7 0.6 0.3 0.2 0.7 0.5 0.4 0.2 0.7 0.4 0.4 0.2 0.8 0.3 0.4 0.2 0.8 0.3 0.4 0.1 0.8 0.1 0.4 0.1 0.9 0.1 0.3 0 0.7-0.1 0.4 0 0.8-0.1 0.4-0.1 0.7-0.3 0.4-0.1 0.7-0.3 0.4-0.2 0.6-0.4 0.3-0.3 0.6-0.5 0.2-0.3 0.5-0.6 0.2-0.3 0.3-0.6 0.2-0.4 0.4-0.8z"/>
		</g>
	</g>
</svg>