<svg id="Grupo_129817" data-name="Grupo 129817" xmlns="http://www.w3.org/2000/svg" xmlns:xlink="http://www.w3.org/1999/xlink" width="182.568" height="76.436" viewBox="0 0 182.568 76.436">
  <defs>
    <clipPath id="clip-path">
      <rect id="Rectángulo_38865" data-name="Rectángulo 38865" width="182.568" height="76.436" fill="none"/>
    </clipPath>
  </defs>
  <g id="Grupo_129816" data-name="Grupo 129816" clip-path="url(#clip-path)">
    <path id="Trazado_156482" data-name="Trazado 156482" d="M31.206,40.672a27.823,27.823,0,0,0-8.279-1.513l-7.059-.531a9.341,9.341,0,0,1-3.476-.743,1.6,1.6,0,0,1-.929-1.433q0-1.167,1.513-1.8a11.914,11.914,0,0,1,4.431-.637,13.2,13.2,0,0,1,4.087.531,6.916,6.916,0,0,1,2.494,1.353,3.785,3.785,0,0,1,1.168,1.831H36.141a9.1,9.1,0,0,0-2.76-5.546,16.149,16.149,0,0,0-6.369-3.689,28.658,28.658,0,0,0-9.074-1.327,31.769,31.769,0,0,0-9,1.141,13.322,13.322,0,0,0-6,3.4A7.942,7.942,0,0,0,.8,37.408a7.766,7.766,0,0,0,1.38,4.537,9.609,9.609,0,0,0,4.538,3.238A29.284,29.284,0,0,0,15.231,46.8l5.36.425a17.231,17.231,0,0,1,4.352.77q1.274.5,1.274,1.513,0,1.274-1.673,1.91a14.489,14.489,0,0,1-4.908.637,17.893,17.893,0,0,1-4.3-.451,7.434,7.434,0,0,1-2.893-1.327,4.243,4.243,0,0,1-1.459-2.1H0a8.758,8.758,0,0,0,2.548,5.785A15.7,15.7,0,0,0,9.208,57.84a32.433,32.433,0,0,0,9.951,1.38A32.074,32.074,0,0,0,28.605,58a13.058,13.058,0,0,0,6.05-3.609A8.548,8.548,0,0,0,36.778,48.5a8.391,8.391,0,0,0-1.273-4.67,8.733,8.733,0,0,0-4.3-3.158" transform="translate(0.001 -14.587)" fill="#0a9f39"/>
    <path id="Trazado_156483" data-name="Trazado 156483" d="M89.286,28.082V58.864h10.879V28.082l-5.413,1.061Z" transform="translate(-47.944 -15.079)" fill="#0a9f39"/>
    <path id="Trazado_156484" data-name="Trazado 156484" d="M98.3,1.433a8.111,8.111,0,0,0-9.208,0,4.743,4.743,0,0,0-1.752,3.874A4.61,4.61,0,0,0,89.089,9.1a7.062,7.062,0,0,0,4.564,1.407A7.128,7.128,0,0,0,98.3,9.1a4.641,4.641,0,0,0,1.725-3.795A4.776,4.776,0,0,0,98.3,1.433" transform="translate(-46.897)" fill="#0a9f39"/>
    <path id="Trazado_156485" data-name="Trazado 156485" d="M150.5,33.012a19.626,19.626,0,0,0-2.442-2.265,17.444,17.444,0,0,0-4.723-2.6,16.713,16.713,0,0,0-5.838-.982,16.23,16.23,0,0,0-7.642,1.751,13.39,13.39,0,0,0-5.281,4.883,13.736,13.736,0,0,0-1.937,7.377,13.768,13.768,0,0,0,1.937,7.351,13.325,13.325,0,0,0,5.281,4.909,16.224,16.224,0,0,0,7.642,1.751A17.37,17.37,0,0,0,149.971,50.2q.274-.274.531-.551v1.081q0,4.935-2.734,7.165t-7.934,2.229a25.357,25.357,0,0,1-7.3-1.088,22.309,22.309,0,0,1-6.926-3.529v8.173a32.231,32.231,0,0,0,7.138,3.211,29.319,29.319,0,0,0,18.734-.982,16.389,16.389,0,0,0,7.244-6.05,17.084,17.084,0,0,0,2.6-9.553V28.067H150.5Zm-3.768,13.152a9.735,9.735,0,0,1-5.573,1.645,9.3,9.3,0,0,1-4.087-.822,5.967,5.967,0,0,1-2.6-2.336,6.652,6.652,0,0,1-.9-3.476,6.759,6.759,0,0,1,.9-3.529,5.79,5.79,0,0,1,2.627-2.309,9.61,9.61,0,0,1,4.06-.8,9.764,9.764,0,0,1,5.519,1.619,12.954,12.954,0,0,1,4.192,5.015,12.846,12.846,0,0,1-4.139,4.989" transform="translate(-65.853 -14.587)" fill="#0a9f39"/>
    <path id="Trazado_156486" data-name="Trazado 156486" d="M225.056,57.23a27.008,27.008,0,0,0,20.353,0,15.92,15.92,0,0,0,6.82-5.625,14.734,14.734,0,0,0,2.441-8.412,14.612,14.612,0,0,0-2.441-8.385,16.185,16.185,0,0,0-6.82-5.625,26.681,26.681,0,0,0-20.353,0,16.212,16.212,0,0,0-6.793,5.625,14.7,14.7,0,0,0-2.441,8.439,14.638,14.638,0,0,0,2.441,8.359,15.945,15.945,0,0,0,6.793,5.625m2.707-18.31a6.724,6.724,0,0,1,2.919-2.733,10.106,10.106,0,0,1,4.564-.955,9.94,9.94,0,0,1,4.538.955,6.758,6.758,0,0,1,2.893,2.733,8.654,8.654,0,0,1,1.008,4.326,8.533,8.533,0,0,1-1.008,4.272,6.75,6.75,0,0,1-2.893,2.733,9.934,9.934,0,0,1-4.538.955,10.1,10.1,0,0,1-4.564-.955,6.674,6.674,0,0,1-2.919-2.76,8.676,8.676,0,0,1-1.008-4.3,8.529,8.529,0,0,1,1.008-4.272" transform="translate(-115.89 -14.587)" fill="#0a9f39"/>
    <path id="Trazado_156487" data-name="Trazado 156487" d="M340.971,46.028a13.687,13.687,0,0,0,5.254-5.626,17.908,17.908,0,0,0,1.884-8.359,18,18,0,0,0-1.884-8.439,13.914,13.914,0,0,0-5.254-5.625,15.983,15.983,0,0,0-15.5-.026,15.579,15.579,0,0,0-5.016,4.674V6.3H309.579V47.169h10.879V41.335a15.541,15.541,0,0,0,4.989,4.694,14.936,14.936,0,0,0,7.7,1.99,15.109,15.109,0,0,0,7.828-1.99m-15.258-7.271a10.857,10.857,0,0,1-3.45-2.733,12.684,12.684,0,0,1-2.282-3.98,12.565,12.565,0,0,1,2.282-4.033,11.2,11.2,0,0,1,3.45-2.76,8.942,8.942,0,0,1,4.139-1.008,7.168,7.168,0,0,1,3.821,1.008,7.039,7.039,0,0,1,2.574,2.76,8.489,8.489,0,0,1,.929,4.033,8.37,8.37,0,0,1-.929,3.98,6.848,6.848,0,0,1-2.574,2.733,7.308,7.308,0,0,1-3.821.982,9.125,9.125,0,0,1-4.139-.982" transform="translate(-166.234 -3.385)" fill="#0a9f39"/>
    <path id="Trazado_156488" data-name="Trazado 156488" d="M241.015,136.8l-4.225-11.535h-6.124l-4.278,11.543-4.076-11.543h-6.469l6.721,17.932H229.1l4.61-12.074,4.56,12.074H244.8l6.72-17.932h-6.406Z" transform="translate(-115.901 -67.263)" fill="#0a9f39"/>
    <path id="Trazado_156489" data-name="Trazado 156489" d="M313.4,129.451a9.269,9.269,0,0,0-3.517-3.941,10.342,10.342,0,0,0-5.511-1.4,12.634,12.634,0,0,0-5.574,1.193,9.547,9.547,0,0,0-3.878,3.313,9.245,9.245,0,0,0,.063,9.924,9.781,9.781,0,0,0,4.035,3.344,13.634,13.634,0,0,0,5.826,1.193,18.568,18.568,0,0,0,5.1-.675,14.577,14.577,0,0,0,4.224-1.931v-4.083a14.085,14.085,0,0,1-3.564,1.46,15.383,15.383,0,0,1-3.941.518,9.425,9.425,0,0,1-3.658-.628,4.859,4.859,0,0,1-2.261-1.805,4.4,4.4,0,0,1-.264-.487h14.161a13.546,13.546,0,0,0-1.241-6m-13.208,2.135a3.99,3.99,0,0,1,1.918-2.387,4.862,4.862,0,0,1,2.418-.565,4.59,4.59,0,0,1,2.214.5,3.852,3.852,0,0,1,1.491,1.46,4.689,4.689,0,0,1,.429.989Z" transform="translate(-157.602 -66.644)" fill="#0a9f39"/>
    <path id="Trazado_156490" data-name="Trazado 156490" d="M366.733,122.006a8.233,8.233,0,0,0-3.109-3.329,9.46,9.46,0,0,0-9.17-.016,9.213,9.213,0,0,0-2.968,2.766v-9.659h-6.438v24.181h6.438V132.5a9.2,9.2,0,0,0,2.952,2.777,8.842,8.842,0,0,0,4.554,1.177,8.942,8.942,0,0,0,4.632-1.177,8.1,8.1,0,0,0,3.109-3.329,11.638,11.638,0,0,0,0-9.94m-5.9,7.349a4.056,4.056,0,0,1-1.523,1.617,4.324,4.324,0,0,1-2.261.581,5.4,5.4,0,0,1-2.449-.581,6.428,6.428,0,0,1-2.042-1.617A7.508,7.508,0,0,1,351.2,127a7.437,7.437,0,0,1,1.35-2.386,6.633,6.633,0,0,1,2.042-1.633,5.3,5.3,0,0,1,2.449-.6,4.243,4.243,0,0,1,2.261.6,4.17,4.17,0,0,1,1.523,1.633,5.026,5.026,0,0,1,.55,2.386,4.957,4.957,0,0,1-.55,2.355" transform="translate(-185.28 -60.016)" fill="#0a9f39"/>
  </g>
</svg>
