<svg version="1.2" xmlns="http://www.w3.org/2000/svg" viewBox="0 0 183 77" width="183" height="77">
	<title>sigob-1-svg</title>
	<defs>
		<clipPath clipPathUnits="userSpaceOnUse" id="cp1">
			<path d="m0 0h182.57v76.44h-182.57z"/>
		</clipPath>
	</defs>
	<style>
		.s0 { fill: #0a9f39 } 
	</style>
	<g id="Clip-Path: Grupo_129816" clip-path="url(#cp1)">
		<filter id="f0">
			<feFlood flood-color="#ffffff" flood-opacity="1" />
			<feBlend mode="normal" in2="SourceGraphic"/>
			<feComposite in2="SourceAlpha" operator="in" />
		</filter>
		<g id="Grupo_129816" filter="url(#f0)">
			<path id="Trazado_156482" class="s0" d="m31.2 26.1q-1-0.4-2-0.6-1-0.3-2.1-0.5-1-0.2-2.1-0.3-1-0.1-2.1-0.1l-7-0.6q-0.5 0-0.9 0-0.5-0.1-0.9-0.2-0.4-0.1-0.9-0.2-0.4-0.1-0.8-0.3-0.2-0.1-0.4-0.2-0.2-0.2-0.3-0.4-0.1-0.2-0.2-0.4 0-0.2 0-0.4 0-1.2 1.5-1.8 0.5-0.2 1.1-0.4 0.5-0.1 1.1-0.2 0.5 0 1.1-0.1 0.5 0 1.1 0 0.5 0 1 0 0.6 0.1 1.1 0.1 0.5 0.1 1 0.2 0.5 0.1 1 0.3 0.3 0.1 0.7 0.2 0.3 0.1 0.6 0.3 0.3 0.2 0.6 0.4 0.3 0.2 0.6 0.4 0.2 0.2 0.4 0.4 0.2 0.2 0.3 0.4 0.2 0.3 0.3 0.5 0.1 0.3 0.2 0.5h10.9q0-0.7-0.3-1.5-0.2-0.8-0.6-1.5-0.3-0.7-0.8-1.3-0.4-0.7-1-1.2-0.7-0.6-1.4-1.2-0.8-0.5-1.6-1-0.8-0.5-1.6-0.9-0.9-0.3-1.8-0.6-1.1-0.3-2.2-0.6-1.1-0.3-2.3-0.4-1.1-0.2-2.3-0.3-1.1 0-2.3 0-1.1 0-2.2 0-1.2 0.1-2.3 0.2-1.1 0.2-2.2 0.4-1.2 0.2-2.3 0.5-0.8 0.2-1.6 0.6-0.8 0.3-1.6 0.7-0.7 0.5-1.4 1-0.7 0.5-1.4 1.1-0.5 0.6-0.9 1.3-0.4 0.6-0.7 1.4-0.3 0.7-0.4 1.5-0.1 0.7-0.1 1.5 0 0.6 0.1 1.2 0.1 0.6 0.2 1.2 0.2 0.6 0.5 1.1 0.2 0.6 0.6 1.1 0.4 0.5 0.9 1 0.5 0.5 1.1 0.9 0.6 0.4 1.2 0.7 0.6 0.4 1.3 0.6 1 0.4 2.1 0.6 1 0.3 2.1 0.5 1.1 0.2 2.2 0.3 1 0.2 2.1 0.2l5.4 0.4q0.5 0.1 1.1 0.1 0.5 0.1 1.1 0.2 0.5 0.1 1.1 0.2 0.5 0.1 1 0.3 1.3 0.5 1.3 1.5 0 1.3-1.7 1.9-0.5 0.2-1.2 0.3-0.6 0.2-1.2 0.3-0.6 0-1.2 0.1-0.6 0-1.3 0-0.5 0-1 0-0.6-0.1-1.1-0.1-0.6-0.1-1.1-0.2-0.5-0.1-1.1-0.2-0.4-0.1-0.7-0.2-0.4-0.1-0.8-0.3-0.3-0.2-0.7-0.4-0.3-0.2-0.7-0.4-0.2-0.2-0.4-0.4-0.3-0.3-0.4-0.5-0.2-0.3-0.4-0.6-0.1-0.3-0.2-0.6h-11q0 0.8 0.2 1.6 0.2 0.8 0.5 1.5 0.4 0.8 0.8 1.4 0.5 0.7 1 1.3 0.7 0.7 1.5 1.2 0.8 0.6 1.6 1.1 0.9 0.5 1.8 0.9 0.9 0.4 1.8 0.7 1.2 0.3 2.4 0.6 1.3 0.3 2.5 0.4 1.3 0.2 2.5 0.3 1.3 0.1 2.6 0 1.2 0.1 2.3 0 1.2-0.1 2.4-0.2 1.2-0.2 2.4-0.4 1.2-0.3 2.3-0.6 0.9-0.2 1.7-0.6 0.8-0.3 1.6-0.8 0.7-0.4 1.4-1 0.7-0.5 1.4-1.2 0.5-0.6 0.9-1.3 0.4-0.7 0.7-1.4 0.2-0.8 0.4-1.6 0.1-0.8 0.1-1.6 0-0.6-0.1-1.2-0.1-0.6-0.2-1.2-0.2-0.6-0.4-1.2-0.3-0.5-0.6-1.1-0.4-0.5-0.9-1-0.4-0.5-1-0.9-0.5-0.4-1.1-0.7-0.7-0.3-1.3-0.5z"/>
			<path id="Trazado_156483" class="s0" d="m41.3 13v30.8h10.9v-30.8l-5.4 1.1z"/>
			<path id="Trazado_156484" class="s0" d="m51.4 1.4q-1-0.7-2.2-1-1.2-0.4-2.4-0.4-1.2 0-2.4 0.4-1.2 0.3-2.2 1-0.4 0.4-0.8 0.8-0.3 0.5-0.5 1-0.3 0.5-0.4 1-0.1 0.6-0.1 1.1 0 0.6 0.1 1.1 0.1 0.5 0.4 1 0.2 0.5 0.5 0.9 0.4 0.5 0.8 0.8 0.5 0.4 1 0.6 0.6 0.3 1.2 0.5 0.5 0.2 1.1 0.3 0.6 0 1.3 0 0.6 0 1.2 0 0.6-0.1 1.2-0.3 0.6-0.2 1.2-0.4 0.5-0.3 1-0.7 0.4-0.3 0.8-0.8 0.3-0.4 0.5-0.9 0.2-0.5 0.3-1 0.1-0.6 0.1-1.1 0.1-0.5-0.1-1.1-0.1-0.5-0.3-1-0.2-0.5-0.5-1-0.4-0.4-0.8-0.8z"/>
			<path id="Trazado_156485" fill-rule="evenodd" class="s0" d="m84.6 13.5h10.9v22.2q0 1.3-0.1 2.5-0.2 1.3-0.5 2.5-0.4 1.2-0.9 2.4-0.5 1.1-1.1 2.2-0.7 1-1.5 1.9-0.8 0.9-1.7 1.6-0.9 0.8-1.9 1.4-1.1 0.7-2.2 1.1-2.2 0.9-4.5 1.4-2.4 0.5-4.8 0.7-2.3 0.1-4.7-0.2-2.4-0.3-4.7-0.9-0.9-0.3-1.9-0.6-0.9-0.4-1.8-0.8-0.9-0.4-1.7-0.8-0.9-0.5-1.7-1v-8.2q0.7 0.6 1.6 1.1 0.8 0.5 1.7 1 0.8 0.4 1.7 0.8 0.9 0.4 1.9 0.6 0.9 0.3 1.8 0.5 0.9 0.2 1.8 0.4 0.9 0.1 1.8 0.2 1 0 1.9 0 5.2 0 7.9-2.2 2.7-2.2 2.7-7.2v-1q-0.2 0.2-0.5 0.5-1.2 1.2-2.7 2.2-1.4 0.9-3 1.6-1.6 0.6-3.3 0.9-1.7 0.3-3.5 0.3-0.9 0-1.9-0.1-1-0.1-2-0.3-1-0.2-1.9-0.6-0.9-0.3-1.8-0.8-0.8-0.4-1.6-0.9-0.7-0.5-1.4-1.1-0.6-0.7-1.2-1.4-0.6-0.7-1.1-1.5-0.5-0.8-0.8-1.7-0.4-0.9-0.7-1.8-0.2-0.9-0.3-1.9-0.1-0.9-0.1-1.9 0-1 0.1-1.9 0.1-1 0.3-1.9 0.3-1 0.7-1.9 0.3-0.9 0.8-1.7 0.5-0.8 1.1-1.5 0.6-0.7 1.2-1.3 0.7-0.6 1.4-1.1 0.8-0.6 1.6-1 0.9-0.4 1.8-0.8 0.9-0.3 1.9-0.5 1-0.2 2-0.3 1-0.1 1.9-0.1 0.8 0 1.5 0 0.8 0.1 1.5 0.2 0.7 0.1 1.5 0.3 0.7 0.2 1.4 0.5 0.6 0.2 1.2 0.5 0.7 0.2 1.2 0.6 0.6 0.3 1.2 0.7 0.6 0.3 1.1 0.8 0.3 0.2 0.7 0.5 0.3 0.3 0.6 0.5 0.3 0.3 0.6 0.6 0.3 0.3 0.5 0.6zm-2.5 17.1q0.6-0.6 1.2-1.2 0.5-0.6 0.9-1.3 0.5-0.7 0.8-1.5-0.3-0.7-0.8-1.4-0.4-0.7-1-1.3-0.5-0.7-1.1-1.2-0.6-0.6-1.3-1.1-0.6-0.4-1.2-0.7-0.7-0.3-1.4-0.5-0.7-0.2-1.4-0.3-0.8-0.1-1.5-0.1-0.5 0-1 0-0.6 0.1-1.1 0.2-0.5 0.1-1 0.2-0.5 0.2-1 0.4-0.4 0.2-0.7 0.4-0.4 0.3-0.7 0.5-0.4 0.3-0.7 0.7-0.3 0.3-0.5 0.7-0.2 0.4-0.4 0.8-0.2 0.5-0.3 0.9-0.1 0.5-0.1 0.9-0.1 0.5-0.1 0.9 0 0.5 0.1 0.9 0 0.5 0.1 0.9 0.1 0.5 0.3 0.9 0.2 0.4 0.4 0.8 0.2 0.4 0.5 0.7 0.3 0.4 0.6 0.7 0.4 0.3 0.7 0.5 0.4 0.3 0.8 0.4 0.5 0.3 1 0.4 0.5 0.2 1 0.3 0.5 0.1 1.1 0.1 0.5 0.1 1 0.1 0.7 0 1.5-0.1 0.7-0.1 1.4-0.3 0.7-0.2 1.4-0.6 0.7-0.3 1.3-0.7 0.6-0.5 1.2-1z"/>
			<path id="Trazado_156486" fill-rule="evenodd" class="s0" d="m107.2 41.6q-1-0.6-1.8-1.3-0.9-0.7-1.6-1.5-0.8-0.9-1.4-1.8-0.6-0.9-1.1-1.9-0.5-1-0.8-2.1-0.3-1-0.4-2.1-0.2-1.1-0.2-2.2 0-1.2 0.2-2.3 0.1-1.1 0.4-2.1 0.3-1.1 0.8-2.1 0.5-1 1.1-2 0.6-0.9 1.4-1.7 0.7-0.8 1.6-1.6 0.8-0.7 1.8-1.3 0.9-0.6 2-1 2.4-1 5-1.5 2.5-0.5 5.1-0.5 2.7 0 5.2 0.5 2.6 0.5 5 1.5 1 0.4 2 1 1 0.6 1.8 1.3 0.9 0.7 1.6 1.6 0.8 0.8 1.4 1.7 0.7 0.9 1.1 2 0.5 1 0.8 2 0.3 1.1 0.5 2.2 0.1 1.1 0.1 2.2 0 1.1-0.1 2.2-0.2 1.1-0.5 2.2-0.3 1.1-0.8 2.1-0.4 1-1.1 1.9-0.6 0.9-1.4 1.8-0.7 0.8-1.6 1.5-0.8 0.7-1.8 1.3-1 0.6-2 1-2.4 1-5 1.5-2.5 0.5-5.2 0.5-2.6 0-5.1-0.5-2.6-0.5-5-1.5-1.1-0.4-2-1zm4.2-16.3q-0.2 0.6-0.3 1.1-0.1 0.5-0.2 1.1-0.1 0.5 0 1.1-0.1 0.6 0 1.1 0.1 0.6 0.2 1.1 0.1 0.6 0.3 1.1 0.2 0.5 0.5 1 0.2 0.5 0.5 0.9 0.3 0.4 0.7 0.7 0.4 0.4 0.8 0.7 0.4 0.2 0.9 0.5 0.5 0.2 1.1 0.4 0.5 0.2 1.1 0.3 0.6 0.1 1.2 0.2 0.6 0 1.2 0 0.5 0 1.1 0 0.6-0.1 1.2-0.2 0.6-0.1 1.1-0.3 0.6-0.2 1.1-0.4 0.4-0.3 0.9-0.5 0.4-0.3 0.7-0.7 0.4-0.3 0.7-0.7 0.3-0.4 0.6-0.9 0.2-0.5 0.4-1 0.2-0.5 0.4-1 0.1-0.6 0.2-1.1 0-0.6 0-1.1 0-0.6 0-1.2-0.1-0.5-0.2-1.1-0.2-0.5-0.4-1-0.1-0.6-0.4-1.1-0.3-0.4-0.6-0.8-0.3-0.4-0.7-0.8-0.3-0.3-0.7-0.6-0.5-0.3-0.9-0.5-0.5-0.2-1.1-0.4-0.5-0.2-1.1-0.3-0.6-0.2-1.2-0.2-0.6-0.1-1.1-0.1-0.6 0-1.2 0.1-0.6 0-1.2 0.2-0.6 0.1-1.1 0.3-0.6 0.2-1.1 0.4-0.5 0.2-0.9 0.5-0.4 0.3-0.8 0.6-0.3 0.4-0.7 0.8-0.3 0.4-0.5 0.8-0.3 0.5-0.5 1z"/>
			<path id="Trazado_156487" fill-rule="evenodd" class="s0" d="m172.9 43.5q-0.9 0.4-1.9 0.7-1 0.2-2 0.3-1.1 0.2-2.1 0.1-1 0.1-2-0.1-1-0.1-2-0.3-0.9-0.3-1.9-0.7-0.9-0.4-1.8-0.9-0.7-0.4-1.4-0.9-0.7-0.5-1.3-1.1-0.7-0.6-1.2-1.3-0.6-0.6-1.1-1.3v5.8h-10.9v-40.9h10.9v16.3q0.5-0.7 1.1-1.3 0.5-0.7 1.2-1.3 0.6-0.6 1.3-1.1 0.7-0.5 1.4-0.9 1.8-1 3.8-1.5 2-0.5 4-0.5 2 0 4 0.5 2 0.5 3.7 1.5 0.9 0.5 1.6 1.1 0.8 0.6 1.5 1.3 0.6 0.7 1.2 1.5 0.5 0.8 1 1.7 0.5 1 0.8 2 0.4 1.1 0.6 2.1 0.3 1.1 0.4 2.2 0.1 1.1 0.1 2.2 0 1-0.1 2.1-0.1 1.1-0.4 2.2-0.2 1-0.6 2-0.3 1-0.8 2-0.4 0.9-1 1.7-0.6 0.8-1.2 1.5-0.7 0.7-1.5 1.3-0.7 0.6-1.6 1.1-0.8 0.6-1.8 0.9zm-12.4-7.7q0.5 0.2 1 0.3 0.5 0.1 1.1 0.2 0.5 0.1 1 0.1 0.5 0 1-0.1 0.5 0 1-0.2 0.5-0.1 0.9-0.3 0.5-0.2 0.9-0.4 0.5-0.3 0.8-0.6 0.4-0.3 0.7-0.6 0.3-0.4 0.6-0.7 0.3-0.4 0.5-0.9 0.3-0.4 0.4-0.9 0.2-0.5 0.3-1 0.1-0.5 0.2-1 0.1-0.5 0-1 0.1-0.6 0-1.1-0.1-0.5-0.2-1-0.1-0.5-0.3-1-0.1-0.5-0.4-1-0.2-0.4-0.5-0.8-0.3-0.4-0.6-0.7-0.3-0.4-0.7-0.7-0.3-0.3-0.8-0.5-0.4-0.3-0.8-0.5-0.5-0.2-1-0.3-0.5-0.1-1-0.2-0.5-0.1-1 0-0.5 0-1.1 0-0.5 0.1-1 0.2-0.5 0.1-1 0.3-0.5 0.2-1 0.5-0.5 0.2-1 0.5-0.4 0.3-0.9 0.7-0.4 0.3-0.8 0.7-0.4 0.4-0.8 0.8-0.3 0.5-0.7 1-0.3 0.4-0.6 0.9-0.3 0.5-0.5 1.1-0.3 0.5-0.4 1.1 0.1 0.5 0.4 1 0.2 0.6 0.5 1.1 0.3 0.5 0.6 0.9 0.4 0.5 0.7 0.9 0.4 0.5 0.8 0.9 0.4 0.3 0.8 0.7 0.5 0.3 0.9 0.6 0.5 0.3 1 0.6 0.5 0.2 1 0.4z"/>
			<path id="Trazado_156488" class="s0" d="m125.1 69.5l-4.2-11.5h-6.1l-4.3 11.5-4.1-11.5h-6.5l6.8 17.9h6.5l4.6-12 4.6 12h6.5l6.7-17.9h-6.4z"/>
			<path id="Trazado_156489" fill-rule="evenodd" class="s0" d="m156.4 64.2q0.2 0.8 0.4 1.5 0.1 0.8 0.2 1.6 0.1 0.7 0 1.5h-14.1q0 0.1 0 0.1 0.1 0.1 0.1 0.1 0 0.1 0.1 0.2 0 0 0 0.1 0.2 0.3 0.5 0.6 0.2 0.2 0.5 0.5 0.3 0.2 0.6 0.4 0.4 0.2 0.7 0.3 0.4 0.2 0.9 0.3 0.4 0.1 0.9 0.2 0.5 0.1 0.9 0.1 0.5 0 1 0 0.5 0 1 0 0.5 0 0.9-0.1 0.5-0.1 1-0.2 0.5-0.1 1-0.2 0.5-0.1 0.9-0.3 0.5-0.1 0.9-0.3 0.5-0.2 0.9-0.4 0.4-0.2 0.9-0.5v4.1q-0.5 0.4-1 0.6-0.5 0.3-1.1 0.6-0.5 0.2-1 0.4-0.6 0.2-1.2 0.4-0.6 0.1-1.2 0.3-0.6 0.1-1.3 0.2-0.6 0.1-1.3 0.1-0.6 0-1.3 0-0.7 0-1.5 0-0.7-0.1-1.4-0.2-0.8-0.2-1.5-0.4-0.7-0.3-1.4-0.6-0.6-0.2-1.2-0.6-0.5-0.3-1-0.8-0.5-0.4-1-0.9-0.4-0.5-0.8-1-0.7-1.1-1.1-2.4-0.4-1.2-0.4-2.6 0-1.3 0.4-2.5 0.3-1.3 1-2.4 0.4-0.6 0.8-1 0.4-0.5 0.9-0.9 0.5-0.5 1.1-0.8 0.5-0.4 1.1-0.6 0.6-0.3 1.3-0.6 0.7-0.2 1.4-0.4 0.7-0.1 1.4-0.2 0.8 0 1.5 0 0.7-0.1 1.4 0 0.7 0.1 1.4 0.3 0.7 0.2 1.4 0.4 0.7 0.3 1.3 0.7 0.6 0.3 1.1 0.7 0.5 0.5 0.9 1 0.5 0.5 0.8 1 0.4 0.6 0.7 1.2 0.3 0.7 0.6 1.4zm-5.3 0.7q-0.1-0.1-0.1-0.2-0.1-0.1-0.1-0.3-0.1-0.1-0.1-0.2-0.1-0.1-0.2-0.3-0.1-0.2-0.3-0.4-0.1-0.2-0.3-0.4-0.2-0.2-0.4-0.3-0.2-0.2-0.5-0.3-0.2-0.1-0.5-0.2-0.3-0.1-0.5-0.2-0.3-0.1-0.6-0.1-0.3 0-0.6 0-0.3 0-0.6 0-0.3 0-0.6 0.1-0.3 0.1-0.6 0.2-0.3 0.1-0.6 0.2-0.3 0.2-0.6 0.5-0.3 0.2-0.6 0.6-0.2 0.3-0.4 0.6-0.2 0.4-0.3 0.7z"/>
			<path id="Trazado_156490" fill-rule="evenodd" class="s0" d="m182.3 64.4q0.3 1.3 0.3 2.6 0 1.3-0.3 2.5-0.3 1.3-0.8 2.4-0.3 0.5-0.6 1-0.4 0.5-0.8 0.9-0.4 0.4-0.8 0.8-0.5 0.4-1 0.7-0.5 0.3-1 0.5-0.6 0.2-1.2 0.4-0.6 0.1-1.2 0.2-0.6 0.1-1.2 0-0.6 0-1.2 0-0.6-0.1-1.1-0.2-0.6-0.2-1.2-0.4-0.5-0.2-1-0.5-0.5-0.3-0.9-0.6-0.4-0.3-0.8-0.7-0.3-0.3-0.7-0.7-0.3-0.4-0.6-0.8v3.4h-6.4v-24.1h6.4v9.6q0.3-0.4 0.6-0.8 0.4-0.4 0.7-0.7 0.4-0.4 0.8-0.7 0.4-0.3 0.9-0.6 1-0.5 2.2-0.8 1.2-0.3 2.4-0.3 1.2 0 2.3 0.3 1.2 0.3 2.2 0.9 0.5 0.3 1 0.6 0.4 0.4 0.8 0.8 0.4 0.4 0.8 0.9 0.3 0.5 0.6 1 0.5 1.2 0.8 2.4zm-6.5 4.4q0.1-0.3 0.2-0.6 0-0.3 0.1-0.6 0-0.3 0-0.6 0-0.3 0-0.6-0.1-0.3-0.1-0.6-0.1-0.3-0.2-0.6-0.1-0.3-0.3-0.6-0.1-0.3-0.2-0.5-0.2-0.2-0.4-0.4-0.2-0.2-0.4-0.4-0.2-0.2-0.5-0.3-0.2-0.2-0.5-0.3-0.3-0.1-0.6-0.2-0.3-0.1-0.5-0.1-0.3 0-0.6 0-0.4 0-0.7 0-0.3 0-0.6 0.1-0.3 0.1-0.6 0.2-0.3 0.1-0.6 0.3-0.3 0.1-0.6 0.3-0.2 0.2-0.5 0.4-0.2 0.2-0.5 0.4-0.2 0.2-0.4 0.5-0.3 0.3-0.4 0.5-0.2 0.3-0.4 0.6-0.2 0.3-0.3 0.6-0.2 0.4-0.3 0.7 0.1 0.3 0.3 0.6 0.1 0.3 0.3 0.6 0.2 0.3 0.4 0.6 0.2 0.3 0.4 0.5 0.2 0.3 0.4 0.5 0.3 0.3 0.5 0.5 0.3 0.2 0.6 0.3 0.2 0.2 0.5 0.4 0.3 0.1 0.6 0.2 0.3 0.1 0.6 0.2 0.3 0.1 0.6 0.1 0.4 0 0.7 0 0.3 0 0.6 0 0.3 0 0.5-0.1 0.3-0.1 0.6-0.2 0.3-0.1 0.5-0.2 0.3-0.2 0.5-0.4 0.2-0.1 0.4-0.3 0.2-0.2 0.4-0.5 0.1-0.2 0.3-0.5 0.1-0.2 0.2-0.5z"/>
		</g>
	</g>
</svg>