<svg version="1.2" xmlns="http://www.w3.org/2000/svg" viewBox="0 0 78 77" width="78" height="77">
	<title>Solcado-1-svg</title>
	<defs>
		<clipPath clipPathUnits="userSpaceOnUse" id="cp1">
			<path d="m0 0h77.93v76.53h-77.93z"/>
		</clipPath>
	</defs>
	<style>
		.s0 { fill: #ffffff } 
	</style>
	<g id="Clip-Path: Grupo_129745" clip-path="url(#cp1)">
		<g id="Grupo_129745">
			<path id="Trazado_156060" fill-rule="evenodd" class="s0" d="m77.9 18.6c0 18.3 0 37.5 0 55.8 0 1.7-0.5 2.1-2.2 2.1q-17.6 0-35.3 0c-1.6 0-2.1-0.5-2.1-2.1q0-36.1 0-72.2c0-1.7 0.4-2.2 2.2-2.2 5.9 0 12.8 0 18.8 0v1q0 6.2 0 12.4-0.1 1.1 0.2 2.1 0.4 0.9 1.1 1.7 0.8 0.7 1.8 1.1 1 0.4 2 0.3 6.3 0 12.5 0zm-21.5 7.9q-5.1 0-10.2 0-0.3 0-0.6 0.1-0.3 0.1-0.6 0.3-0.2 0.2-0.3 0.5-0.2 0.3-0.2 0.7 0 0.3 0.1 0.6 0.2 0.3 0.4 0.5 0.3 0.3 0.6 0.4 0.3 0.1 0.6 0.1 0.3 0 0.6 0h14.6q2.4 0 4.9 0 0.3 0 0.6-0.1 0.3-0.1 0.5-0.3 0.3-0.1 0.5-0.4 0.1-0.3 0.2-0.6 0-0.3-0.1-0.7-0.1-0.3-0.4-0.6-0.2-0.3-0.6-0.4-0.3-0.1-0.7-0.1-4.9 0-9.9 0zm-11.9-9.9q0 0.4 0.1 0.7 0.2 0.3 0.4 0.5 0.3 0.3 0.6 0.4 0.3 0.1 0.7 0 4.3 0.1 8.6 0 0.3 0.1 0.7 0 0.3-0.1 0.5-0.4 0.3-0.2 0.4-0.5 0.2-0.3 0.2-0.7c0-0.9-0.7-1.5-1.8-1.5q-2.1 0-4.2 0-2.2 0-4.4 0c-1.1 0-1.8 0.6-1.8 1.5zm0.5 33.3q-0.2 0.1-0.3 0.3-0.1 0.2-0.2 0.5 0 0.2 0 0.4 0 0.2 0.1 0.5 0.1 0.2 0.3 0.4 0.1 0.2 0.4 0.3 0.2 0.1 0.4 0.2 0.3 0 0.5 0 5 0 10.1 0 5 0 10 0 0.3 0.1 0.6 0 0.4-0.1 0.6-0.3 0.3-0.2 0.4-0.5 0.2-0.3 0.2-0.7 0-0.3-0.1-0.6-0.2-0.3-0.4-0.6-0.3-0.2-0.6-0.3-0.3-0.1-0.7-0.1-10-0.1-20.1 0-0.1 0-0.3 0-0.2 0.1-0.3 0.1-0.2 0.1-0.3 0.2-0.2 0.1-0.3 0.2zm23.1 12.5c0-1-0.8-1.6-2-1.6q-0.1 0-0.2 0-9.6 0-19.2 0-0.1 0-0.2 0-0.2 0-0.3 0-0.1 0-0.2 0-0.1 0.1-0.2 0.1c-0.4 0-0.7 0.2-0.9 0.5-0.3 0.3-0.4 0.7-0.4 1 0 0.4 0.2 0.8 0.4 1 0.3 0.3 0.6 0.5 1 0.5q0.1 0.1 0.2 0.1 0.1 0 0.2 0 0.2 0 0.3 0 0.1 0 0.2 0 4.7 0 9.4 0 5 0 9.9 0c1.3 0 2-0.6 2-1.6zm-1.9-24.5q-9.9 0-19.7 0c-1.2 0-2 0.6-2 1.6 0 1 0.7 1.6 2 1.6q4.9 0 9.8 0 4.9 0 9.9 0 0.3 0 0.6 0 0.3-0.1 0.6-0.3 0.2-0.2 0.4-0.4 0.2-0.3 0.3-0.6c0.2-1-0.6-1.9-1.9-1.9z"/>
			<path id="Trazado_156061" class="s0" d="m31.9 2.8q0 0.1 0 0.3 0 0.2 0 0.4-0.1 0.2-0.1 0.3 0 0.2 0 0.4-0.2 1.1-0.7 2.1-0.5 1-1.3 1.9-0.7 0.8-1.7 1.4-0.9 0.6-2 0.9-1.1 0.4-2.2 0.5-1.1 0.1-2.3-0.2-1.1-0.2-2.1-0.7-1-0.6-1.8-1.4c-1.5-1.3-2.7-1.3-4.1 0.1q-2.4 2.4-4.8 4.9-0.5 0.3-0.8 0.8-0.2 0.5-0.2 1.1-0.1 0.6 0.2 1.1 0.2 0.5 0.6 0.9 0.9 0.9 1.5 2 0.6 1.1 0.8 2.3 0.2 1.2 0.1 2.5-0.2 1.2-0.7 2.3-0.5 1.2-1.2 2.2-0.8 0.9-1.8 1.6-1.1 0.7-2.3 1.1-1.2 0.3-2.4 0.3-0.5 0-1 0.2-0.5 0.2-0.9 0.6-0.3 0.4-0.5 0.8-0.2 0.5-0.2 1.1 0 3.7 0 7.4 0 0.5 0.2 1 0.2 0.5 0.5 0.9 0.4 0.3 0.9 0.5 0.5 0.2 1 0.2 0.2 0 0.5 0 0.2 0.1 0.5 0.1 0.2 0 0.5 0.1 0.2 0 0.5 0.1c1.4 0.3 2.7 1 3.8 2 1 1.1 1.8 2.3 2.2 3.7 0.4 1.4 0.5 2.9 0.2 4.4-0.4 1.4-1.1 2.7-2.1 3.8-1.3 1.5-1.3 2.7 0.1 4.1q2.4 2.4 4.8 4.8c1.4 1.4 2.7 1.4 4.1 0.1 0.9-0.8 1.9-1.4 3-1.8 1.1-0.4 2.3-0.5 3.4-0.4 1.2 0 2.3 0.4 3.3 0.9 1.1 0.6 2 1.3 2.7 2.2q0.4 0.6 0.8 1.2 0.3 0.7 0.6 1.4 0.2 0.6 0.3 1.4 0.1 0.7 0.1 1.4 0.1 0.6 0.3 1.1 0.3 0.5 0.8 0.9 0.4 0.3 1 0.4 0.6 0.1 1.2-0.1v-22.4c-3.7-0.7-7-2.7-9.3-5.5-2.4-2.9-3.7-6.5-3.7-10.2 0-3.8 1.3-7.4 3.7-10.2 2.3-2.9 5.6-4.9 9.3-5.6v-22.4c-2-0.3-3.1 0.6-3.3 2.7z"/>
			<path id="Trazado_156062" class="s0" d="m64.6 15.4q4.9 0 9.8 0h2.9l-14.9-15.2v0.8q0 6.1 0 12.2c0 1.7 0.5 2.2 2.2 2.2z"/>
		</g>
	</g>
</svg>