<svg id="Grupo_129746" data-name="Grupo 129746" xmlns="http://www.w3.org/2000/svg" xmlns:xlink="http://www.w3.org/1999/xlink" width="77.928" height="76.534" viewBox="0 0 77.928 76.534">
  <defs>
    <clipPath id="clip-path">
      <rect id="Rectángulo_38825" data-name="Rectángulo 38825" width="77.928" height="76.534" fill="#099d39"/>
    </clipPath>
  </defs>
  <g id="Grupo_129745" data-name="Grupo 129745" clip-path="url(#clip-path)">
    <path id="Trazado_156060" data-name="Trazado 156060" d="M261.637,18.57c-4.17,0-8.34.01-12.511,0a4.776,4.776,0,0,1-5.137-5.149q-.008-6.217,0-12.434V0h-.973Q234.107,0,225.2,0c-1.73,0-2.207.477-2.207,2.208q0,36.073,0,72.147c0,1.683.488,2.172,2.164,2.172q17.658,0,35.315,0c1.7,0,2.181-.474,2.181-2.148q0-27.441,0-54.882V18.57Zm-10.551,7.958a1.585,1.585,0,0,1,1.718,1.788,1.644,1.644,0,0,1-1.767,1.37c-1.635.017-3.27.005-4.906.005H231.572c-.211,0-.423.008-.633,0a1.635,1.635,0,0,1-1.693-1.618,1.584,1.584,0,0,1,1.742-1.542c3.376-.009,6.752,0,10.128,0,3.323,0,6.646-.007,9.97,0M231.067,15.089c1.449-.012,2.9,0,4.348,0,1.4,0,2.793-.01,4.19,0,1.1.01,1.8.622,1.811,1.553a1.618,1.618,0,0,1-1.783,1.6q-4.308.033-8.617,0a1.612,1.612,0,0,1-1.769-1.614c.016-.932.709-1.531,1.821-1.541M229.715,49.9a2.193,2.193,0,0,1,1.27-.508q10.049-.047,20.1-.015a1.616,1.616,0,0,1,1.736,1.652,1.593,1.593,0,0,1-1.779,1.5q-5.024.011-10.049,0t-10.049,0a1.547,1.547,0,0,1-1.566-.979,1.345,1.345,0,0,1,.338-1.66m21.138,14.088c-3.3.008-6.593,0-9.89,0q-4.708,0-9.415,0a6.8,6.8,0,0,1-.947-.042,1.552,1.552,0,0,1-.059-3.071,4.973,4.973,0,0,1,.866-.052q9.613,0,19.226,0c.079,0,.158,0,.237,0,1.218.018,1.955.622,1.948,1.594s-.729,1.567-1.967,1.57m1.938-24.165a1.652,1.652,0,0,1-1.826,1.288q-4.985.007-9.97,0-4.866,0-9.733,0c-1.272,0-2.027-.6-2.015-1.6.012-.971.753-1.566,1.971-1.566q9.851,0,19.7,0c1.273,0,2.087.83,1.87,1.876" transform="translate(-184.724 0)" fill="#099d39"/>
    <path id="Trazado_156061" data-name="Trazado 156061" d="M31.906,2.855a10.709,10.709,0,0,1-.155,1.413,8.1,8.1,0,0,1-5.658,6.351,8.036,8.036,0,0,1-8.376-1.8c-1.471-1.318-2.729-1.292-4.141.117q-2.41,2.4-4.813,4.815a2.557,2.557,0,0,0-.12,3.961A8.067,8.067,0,0,1,10.29,26.8a8.079,8.079,0,0,1-7.711,5.213A2.511,2.511,0,0,0,.01,34.639q-.02,3.721,0,7.442A2.535,2.535,0,0,0,2.6,44.7a10.617,10.617,0,0,1,1.956.243,8.464,8.464,0,0,1,4.183,13.95c-1.334,1.475-1.306,2.732.093,4.134q2.377,2.381,4.758,4.758c1.4,1.4,2.673,1.423,4.141.087a8.439,8.439,0,0,1,12.362.946,8.94,8.94,0,0,1,1.854,5.356,2.471,2.471,0,0,0,3.213,2.344V54.137a16.106,16.106,0,0,1,0-31.582V.143c-1.992-.242-3.1.666-3.256,2.712" transform="translate(0 -0.087)" fill="#099d39"/>
    <path id="Trazado_156062" data-name="Trazado 156062" d="M365.991,16.263q4.869,0,9.738,0H378.7L363.8,1.04v.872q0,6.1,0,12.194c0,1.65.512,2.155,2.191,2.156" transform="translate(-301.368 -0.862)" fill="#099d39"/>
  </g>
</svg>
